<svg id="AWSL" xmlns="http://www.w3.org/2000/svg" viewBox="0 0 1000 1000"><defs><style>.cls-1{fill:#1d1d1b;}</style></defs><path id="LOGO" class="cls-1" d="M262.78,580,248,525.31l-15.21-54.68-14-54.68L204,361.27,189.6,306.59l-14.8-54.68a12.34,12.34,0,0,0-14.86-9.14l-.36.09a12.34,12.34,0,0,0-9.27,14.78c.07.28.14.56.23.84l15.21,54.68,14.39,53,14.8,54.68,14.8,56.32,14.39,53.45,14.39,54.68L253.32,640a12.34,12.34,0,0,0,11.92,9h3.29a12.34,12.34,0,0,0,8.66-15.15l0-.06Zm78.93,83.46-7.81-28.78L319.1,580l-14.39-54.68-14.8-54.68-16-54.68-13.16-54.68-14.8-54.68a12.33,12.33,0,0,0-24.19,4.84,11.64,11.64,0,0,0,.35,1.32l14.8,53.45,14.8,54.68,14.39,56.32,14.8,53.45,14.8,54.68L310.47,640l7.81,28.78,7,25.9a12.34,12.34,0,0,0,11.92,9h3.29a12.34,12.34,0,0,0,8.65-15.15v-.06ZM733.93,477.2l14.39-54.68,14.8-56.32,14.39-54.68A12.33,12.33,0,1,0,754,304a12.8,12.8,0,0,0-.34,1.32L738.87,360,726.12,416l-14.8,54.68-14.39,54.68L680.9,580l-14.8,54.68-7.82,28.78-7,25.9a12.33,12.33,0,0,0,8.56,15.19l.07,0h3.29a12.32,12.32,0,0,0,11.92-9l7-25.9,7.81-28.78,14.8-54.68,14.39-55.5ZM662.4,530.65,677.2,476,692,421.29l14.39-55.09A12.32,12.32,0,0,0,682.56,360l0,.06-14.8,54.68-14.39,54.68-14.8,54.68-5.76,21.79-11.1-24.25L596.2,466.93l-25.07-53.45a12.33,12.33,0,1,0-22.21,10.28L574,477.2l25.49,54.69,23.85,52.21v2.47l-11.51,41.11L561.67,522.84,511.1,415.12a12.34,12.34,0,1,0-22.2,10.28l50.16,107.72,63.72,133.2-5.75,21-5.76,21.79-11.51-24.25L552.21,632.2l-25.49-54.68-14.8-32.07-30.42-65-30.42-65.78v-2H434.63v2l-25.08,53.45-31.24,54.68L367.2,547.1l-5.75-21.79-14.8-54.68L331.85,416l-14.8-54.68a12.34,12.34,0,0,0-23.44,4.93l14.8,54.68,14.39,56.33,14.8,53.44L352,586.57v6.16l13.16,48.52,9,33.71,5.76,21,17.27,54.26v2.88a11.92,11.92,0,0,0,8.63,4.53h3.29a11.54,11.54,0,0,0,7.81-7L444.5,695.1,470,640.42l25.49-54.68,4.52-9.45,4.52,9.45L530,640.42,555.5,695.1,581,749.78a11.94,11.94,0,0,0,7.81,7h3.29a12,12,0,0,0,8.64-4.52v-2.88l18.09-54.27,5.75-21,9-33.72,13.15-48.51v-6.17Zm-224.07-7.81L389,629.32l-11.51-41.11v-2.47l23.85-51L426,478.44l12.33-30,16.45,35.76Zm34.95,54.68L447.79,632.2,422.3,686.88l-11.52,24.26L405,689.35l-5.76-21,61.67-133.21L470,515.85l16.44,35.77ZM840.41,242.86a12.33,12.33,0,0,0-15.19,8.57l0,.06-14.8,54.69L796,361.27,781.21,416l-14,54.68-14.8,54.68L737.22,580l-14.8,54.68A12.33,12.33,0,0,0,731,649.86l.06,0h3.29a12.34,12.34,0,0,0,11.93-9l14.8-54.68,14.8-55.5L790.67,476l14.8-54.68,14.39-55.09,14.39-54.68,15.21-53a12.33,12.33,0,0,0-8.2-15.39C841,243,840.7,242.93,840.41,242.86Z"/></svg>