<svg id="AWSL" xmlns="http://www.w3.org/2000/svg" viewBox="0 0 1000 1000"><defs><style>.cls-1{fill:#1d1d1b;}</style></defs><g id="TITLE"><path class="cls-1" d="M289.59,499.43l-13.13-48.5L263,402.43l-12.39-48.5-13.13-48.5-12.77-48.5-13.12-48.5a10.94,10.94,0,0,0-13.18-8.1l-.32.07a10.94,10.94,0,0,0-8.22,13.11c.06.25.13.5.2.75l13.49,48.5,12.77,47.05,13.13,48.5,13.12,50,12.77,47.4,12.76,48.5,13.13,48.51a10.93,10.93,0,0,0,10.57,8h2.92a11,11,0,0,0,7.68-13.44l0,0Zm70,74-6.93-25.53-13.12-48.5-12.77-48.5-13.13-48.5-14.22-48.5-11.67-48.5-13.13-48.5a10.94,10.94,0,1,0-21.45,4.3q.12.58.3,1.17l13.13,47.41,13.13,48.5,12.76,50,13.13,47.4,13.13,48.5,13.13,48.51,6.93,25.52,6.2,23a10.93,10.93,0,0,0,10.57,8h2.92a10.94,10.94,0,0,0,7.67-13.44v0ZM707.5,408.27l12.76-48.5,13.13-50,12.76-48.51a10.94,10.94,0,0,0-20.85-6.64q-.18.59-.3,1.17l-13.13,48.51-11.3,49.59-13.13,48.5-12.76,48.5-14.23,48.5-13.12,48.5-6.93,25.53-6.2,23a10.93,10.93,0,0,0,7.6,13.47l.06,0h2.91a11,11,0,0,0,10.58-8l6.2-23,6.93-25.53,13.13-48.5,12.76-49.23ZM644,455.67l13.13-48.5,13.13-48.5,12.76-48.86a10.92,10.92,0,0,0-21.13-5.53l0,.06-13.13,48.5L636,401.34l-13.13,48.5-5.1,19.33-9.85-21.52-22.61-48.5-22.24-47.41a10.94,10.94,0,1,0-19.69,9.12l22.24,47.41,22.61,48.5,21.15,46.31v2.19l-10.21,36.47-44.49-93L509.85,353.2a10.94,10.94,0,1,0-19.7,9.12l44.49,95.54L591.17,576l-5.11,18.6L581,613.94l-10.21-21.52-24.44-46.67-22.61-48.5L510.58,468.8l-27-57.62-27-58.34V351H442v1.83l-22.25,47.4-27.71,48.5-9.85,21.52-5.1-19.33L364,402.43l-13.13-48.5-13.13-48.5a10.93,10.93,0,0,0-20.78,4.38l13.12,48.5,12.77,50L356,455.67l12.76,49.6v5.47l11.67,43,8,29.9,5.11,18.6,15.31,48.14V653a10.56,10.56,0,0,0,7.66,4h2.92a10.2,10.2,0,0,0,6.93-6.2l24.43-49.23L473.38,553,496,504.54l4-8.39,4,8.39L526.62,553l22.61,48.5L571.84,650a10.56,10.56,0,0,0,6.93,6.2h2.92a10.54,10.54,0,0,0,7.65-4v-2.55l16-48.14,5.1-18.6,8-29.9,11.67-43v-5.47ZM445.3,448.74l-43.76,94.45-10.21-36.46v-2.19l21.15-45.22,21.88-50,10.94-26.62,14.59,31.73Zm31,48.51-22.61,48.5-22.61,48.5-10.21,21.51-5.11-19.32-5.1-18.6,54.7-118.16,8-17.13L488,474.27ZM802,200.4a10.94,10.94,0,0,0-13.48,7.6l0,.06-13.12,48.5-12.77,48.87-13.13,48.5L737,402.43l-13.12,48.5-13.5,48.5-13.12,48.5a10.94,10.94,0,0,0,7.6,13.48l.05,0h2.92a11,11,0,0,0,10.58-8l13.12-48.5,13.13-49.23,13.13-48.5L771,358.67l12.76-48.86,12.77-48.51,13.49-47a10.93,10.93,0,0,0-7.27-13.65Q802.33,200.49,802,200.4Z"/><path class="cls-1" d="M392.74,798.55l-8.69-25.66H348.14l-9.21,25.66H326.82l33.43-88.79H373.8l32.08,88.79ZM366,722.91l-14,39.22H379.7l-13.14-39.22Zm100,1.86h-.52l-20.28,73.78H432.58L409.3,709.76h12.62l17,72.34h.42l19.87-72.34h13.14l19.87,72.34h.51l16.46-72.34H522.3L499,798.55H486.39Zm132.45,10.76H587.29q-.93-17-22.36-18h0q-19.86.53-19.86,15.53h0q0,9.72,10.66,11.17h0L581,750q19.88,4.86,19.87,24.32h0Q600.44,799.06,566,800h0q-18.94,0-26.7-7.76h0q-9.72-7.25-9.21-22.35h11.59q.52,20.39,24.32,20.9h0q23.28-.51,23.7-15h0q2-12.22-19.35-16h0l-18.42-3.94Q533,750.53,533,734.5h0q1.44-26.19,31-27.12h0Q597.43,707.38,598.46,735.53ZM616,709.76h12.11v78.13h45.12v10.66H616Z"/></g></svg>