<svg id="JSS" xmlns="http://www.w3.org/2000/svg" viewBox="0 0 1000 1000"><defs><style>.cls-1,.cls-2{fill:#1684ac;}.cls-1{fill-opacity:0;}.cls-3{fill:#333;}</style></defs><rect class="cls-1" x="150" y="150.08" width="700" height="699.85"/><path class="cls-2" d="M498.67,849.65a267.8,267.8,0,0,1-58.86-4.86c-5.53-1.09-6.68-2.61-4.57-8.33,11.35-29.2,22.15-58.58,33.18-87.92,3.94-10.48,7.87-21,12-31.4a11.15,11.15,0,0,0,0-8.6q-19.17-50.71-38.17-101.47a4.85,4.85,0,0,0-5.83-3.62,4.5,4.5,0,0,0-.49.14q-53.55,8.83-107.14,17.48a12.44,12.44,0,0,0-7.83,5q-38.71,47.79-77.81,95.57l-1.23,1.46c-5.86,6.73-6.59,6.82-12.41-.27A356.2,356.2,0,0,1,202,684.55a330.48,330.48,0,0,1-30.57-62.65c-2.8-7.79-2.43-8.79,5.67-10.07q60.47-9.84,121-19.27a20.4,20.4,0,0,0,14.14-8.06q31.46-39.09,63.39-77.44c4.58-5.54,4.26-9.15,0-14.6-22.15-26.59-43.84-53.23-65.45-80a14.73,14.73,0,0,0-10.07-4.57L181.54,389.07c-12.64-2-13.23-2.34-8.43-14.28a346.41,346.41,0,0,1,58.36-99.1c3.94-4.57,6.36-4,9.8.23,17.57,21.74,35.24,43.3,52.9,65q13.74,16.74,27.1,33.55A12.81,12.81,0,0,0,330,379c34.69,5.59,69.38,11.17,104,17,4.81.83,7.19,0,9.15-4.85q18.09-48.89,37-97.9a15.18,15.18,0,0,0,0-11.58C464.94,242,450,202.14,434.82,162.41c-1.51-3.89-1-5.67,3.25-6.77a159.06,159.06,0,0,1,33.28-4.58c29-1.46,58-2,86.69,3.57,9.56,1.88,9.15,1.83,5.86,10.81-10.9,28.69-21.61,57.44-32.41,86.13-3.89,10.3-7.73,20.65-11.76,30.85a12.06,12.06,0,0,0-.32,9.16q19.3,50.7,38.31,101.06a5.16,5.16,0,0,0,6.18,3.9,4.77,4.77,0,0,0,.54-.15c35.48-5.91,71-11.63,106.51-17.39a12.4,12.4,0,0,0,8-4.58q27.74-34.34,55.56-68.65c8.29-10.17,16.71-20.19,24.81-30.53,3.16-4.12,5.54-4.58,8.88-.37a348,348,0,0,1,60,103.26c2.84,7.78,2.52,8.6-5.72,10q-60.15,9.84-120.33,19.32a21.46,21.46,0,0,0-14.78,8.38q-31.17,38.9-63,77.21a9.15,9.15,0,0,0,0,14.05c19.54,23.34,39.23,46.64,57.81,70.76a36.62,36.62,0,0,0,26.68,15.93c27.46,3.38,54.38,8.51,81.52,12.9,11.07,1.84,22.15,3.71,33.23,5.36,5.4.82,7.18,3,5.12,8.56a350.89,350.89,0,0,1-32.86,66.5,320.12,320.12,0,0,1-27.74,37.85c-3.48,4-5.53,3.89-8.78,0-17.4-21.6-35-43-52.5-64.49-9.16-11.35-18.31-22.88-27.46-34a13.69,13.69,0,0,0-9.16-5.35c-34.92-5.59-69.8-11.17-104.63-17.08-5.17-.91-7.09.74-8.78,5.27Q539.18,656.17,521.05,703a23.38,23.38,0,0,0-.45,18.31c15,38.68,29.47,77.54,44.3,116.26,1.7,4.57.87,6-3.52,7A227.32,227.32,0,0,1,511,849.92c-3.57-.23-7.41-.27-12.36-.27Zm1.38-279.84h34.28a9.15,9.15,0,0,0,9.15-5.08q16.71-29.16,33.78-58.13a12.09,12.09,0,0,0,0-13.73q-17.07-28.78-33.64-57.94a9.15,9.15,0,0,0-9.15-4.81H465.26a9.15,9.15,0,0,0-8.6,4.81q-16.76,29.15-33.78,58.12a12,12,0,0,0,0,13.74q17.16,28.92,33.78,58.12a9.14,9.14,0,0,0,9.15,5.08c11.4-.32,22.89-.18,34.24-.18Z"/><path class="cls-3" d="M684.09,499V434.15c0-8.51.82-9.16,8-4.58,25.86,15.65,51.77,31.31,77.53,47.19a10.86,10.86,0,0,0,13.28-.5c17.94-11.58,36.11-22.89,54.23-34.19,6.91-4.31,7.56-3.89,9.16,4.3a257,257,0,0,1,3.61,49.93,319.47,319.47,0,0,1-2.79,52.55c-1.14,6.91-1.83,7.41-7.69,3.84-19.72-11.94-39.54-23.75-59.22-35.79a6.81,6.81,0,0,0-8.1,0q-40.51,25.54-81.25,50.85c-1.74,1.1-3.43,3.3-5.58,2.29s-1.19-4.17-1.19-6.32V499ZM338.66,358.49c2.38-26.22,0-52.5,2.06-78.68a10.44,10.44,0,0,0-6.63-11.44c-18.91-9.43-37.58-19.45-56.3-29.34-6-3.16-6-4.57-.64-9.15a350.61,350.61,0,0,1,88.24-53.14c5.45-2.29,6.5-1.51,6.41,4.9-.37,22-.69,44-1.33,66a11.07,11.07,0,0,0,6.78,11.53c27.46,14.33,54.92,28.93,82.61,43.44,5.31,2.83,5.36,3.8,0,6.82Q417.16,334.29,374.27,359l-29.06,16.84c-5,2.88-6.41,2.24-6.55-3.39C338.57,367.78,338.66,363.11,338.66,358.49Zm3.94,265.28c1,.51,2.06,1.05,3.16,1.7l115.47,66.77c1.42.83,3.48,1.15,3.67,3.12s-2.2,2.83-3.8,3.7c-27.47,15-54.42,30-81.75,44.86a10.21,10.21,0,0,0-6,10.62c1,21.32,1.69,42.7,2.43,64.07.27,8.2-.46,8.7-8.15,5.5A361.67,361.67,0,0,1,280,772.25c-4.35-3.53-2.75-5.17,1-7.23,18.86-10.39,37.67-21.06,56.67-31.22a9.15,9.15,0,0,0,5.58-10.39c-1.1-14.74-1.37-29.56-1.83-44.35q-.82-24.72-1.37-49.48c-.23-2.15-1-4.89,2.56-5.81ZM311,495.39v65.4c0,1.83.87,4-1.28,5.18s-3.21-.6-4.58-1.42q-40.5-24.36-81-48.93a7.81,7.81,0,0,0-9.7,0c-18.31,11.72-37,22.88-55.43,34.69-3.93,2.47-5.4,2.06-6-2.7a377.13,377.13,0,0,1,.36-98.77c1.06-7.6,2.7-8.38,9.16-4.58,15.79,9.57,31.44,18.91,46.91,28.84a15.38,15.38,0,0,0,19.36,0c25-16.34,50.35-32,75.84-47.6,5.91-3.66,6.64-3.25,6.68,3.8v66ZM661.48,648.53c-2.38,26.18,0,52.46-2.11,78.64A9.77,9.77,0,0,0,665,737.56c17.44,9.15,34.74,18.3,52,27.78,6.32,3.38,6.36,4.57,1,8.65a359.25,359.25,0,0,1-82.39,48.74c-6.31,2.7-7.55,2-7.46-4.8.28-19.68.6-39.32,1.28-59a10.3,10.3,0,0,0-6.63-10.76q-41.21-21.55-81.7-43.57c-6.59-3.57-6.5-4.58,0-8.47q56.65-32.58,113.37-65.08c5.67-3.25,6.68-2.61,6.77,4.16Zm-33-474.22,3.21,1.19a359.83,359.83,0,0,1,81.74,46.92c6.36,4.85,6.13,5.54-.73,9.15-16.89,9.16-33.73,18.59-50.67,27.69a8.38,8.38,0,0,0-4.94,9.8c1.23,13.23.73,26.59,1.55,39.91,1.1,17.89,1.24,35.88,1.56,53.87,0,7.28-.73,7.83-6.91,4.26C628.2,352.63,603,338,578.13,323.52c-12.63-7.27-25.4-14.32-38-21.69-6.5-3.85-6.36-5.08,0-8.61,27.1-14.83,54.1-29.75,81.29-44.39a9.16,9.16,0,0,0,5.49-9.52c-.87-17.72-1.51-35.47-2.2-53.23V177.2c.28-1.92,1.28-3.25,3.8-2.89Z"/></svg>