<svg id="JSS" xmlns="http://www.w3.org/2000/svg" viewBox="0 0 1000 1000"><defs><style>.cls-1,.cls-2{fill:#1684ac;}.cls-2{fill-opacity:0;}.cls-3{fill:#333;}</style></defs><path class="cls-1" d="M333.32,373.09v10.08l-26.67,2.44q-.3,28-.31,84.39h0v13.6q0,56.34.31,84.09h0l26.67,2.44V580h-92v-9.82l25.6-2.44q.57-15,.56-42.2t.26-37.56h0l.56-87.61L200.47,580H186.58L116.64,401.39q1.36,46.28,1.37,76.5h0v89l29.37,3.26V580H75v-9.82l29.37-3.26,1.12-180.19-29.12-3.51V373.09h68l61.79,157.33,60.17-157.33Z"/><rect class="cls-2" x="346.18" y="328.3" width="279.33" height="279.27"/><path class="cls-1" d="M485.32,607.47a107,107,0,0,1-23.49-1.94c-2.21-.44-2.66-1-1.82-3.32,4.52-11.66,8.84-23.38,13.24-35.09,1.57-4.18,3.14-8.36,4.78-12.53a4.44,4.44,0,0,0,0-3.43q-7.65-20.24-15.23-40.49a1.93,1.93,0,0,0-2.33-1.45l-.19.06q-21.37,3.53-42.76,7a4.94,4.94,0,0,0-3.12,2q-15.45,19.07-31,38.13l-.49.59c-2.34,2.68-2.63,2.72-4.95-.11a142.64,142.64,0,0,1-11-15.27,131.53,131.53,0,0,1-12.2-25c-1.12-3.1-1-3.5,2.26-4q24.14-3.93,48.28-7.69a8.19,8.19,0,0,0,5.64-3.22q12.54-15.6,25.3-30.9c1.82-2.21,1.69-3.65,0-5.83-8.84-10.61-17.5-21.24-26.12-31.92a5.93,5.93,0,0,0-4-1.83l-47.32-7.51c-5-.78-5.28-.93-3.36-5.7a138.18,138.18,0,0,1,23.28-39.54c1.57-1.82,2.54-1.59,3.91.09,7,8.68,14.06,17.28,21.11,25.94q5.49,6.68,10.82,13.39a5.11,5.11,0,0,0,3.47,1.82c13.84,2.23,27.69,4.46,41.51,6.78,1.92.33,2.87,0,3.66-1.94q7.2-19.5,14.75-39.06a6.09,6.09,0,0,0,0-4.63c-6.06-15.85-12-31.74-18.08-47.59-.6-1.55-.38-2.27,1.3-2.71a63.29,63.29,0,0,1,13.28-1.82c11.56-.59,23.14-.81,34.59,1.42,3.82.75,3.65.73,2.34,4.31-4.35,11.45-8.62,22.92-12.93,34.38-1.56,4.11-3.09,8.23-4.7,12.31a4.85,4.85,0,0,0-.13,3.65Q501.3,405,508.88,425.1a2.07,2.07,0,0,0,2.47,1.56l.22-.07c14.15-2.35,28.32-4.63,42.5-6.94a4.89,4.89,0,0,0,3.19-1.82q11.07-13.69,22.18-27.4c3.3-4.05,6.66-8.05,9.9-12.18,1.26-1.64,2.21-1.83,3.54-.15a138.92,138.92,0,0,1,23.92,41.21c1.14,3.1,1,3.43-2.28,4q-24,3.93-48,7.71a8.52,8.52,0,0,0-5.89,3.34q-12.45,15.53-25.15,30.81a3.66,3.66,0,0,0-.47,5.15,4.09,4.09,0,0,0,.47.46c7.79,9.31,15.65,18.61,23.06,28.23a14.59,14.59,0,0,0,10.65,6.36c11,1.35,21.7,3.4,32.53,5.15,4.42.73,8.84,1.48,13.26,2.14,2.16.33,2.87,1.19,2,3.41a140.29,140.29,0,0,1-13.12,26.54,126.73,126.73,0,0,1-11.07,15.11c-1.38,1.6-2.21,1.55-3.5,0-6.94-8.62-14-17.17-21-25.74-3.66-4.53-7.31-9.13-11-13.59a5.46,5.46,0,0,0-3.65-2.13c-13.94-2.23-27.86-4.46-41.76-6.82-2.06-.36-2.83.3-3.5,2.1q-7,18.75-14.25,37.41a9.33,9.33,0,0,0-.18,7.31c6,15.43,11.76,30.93,17.68,46.39.67,1.82.35,2.41-1.41,2.81a91,91,0,0,1-20.09,2.14c-1.42-.1-3-.11-4.93-.11Zm.55-111.67h13.68a3.65,3.65,0,0,0,3.65-2q6.66-11.64,13.48-23.19a4.82,4.82,0,0,0,0-5.48q-6.81-11.49-13.42-23.13a3.65,3.65,0,0,0-3.66-1.91H472a3.66,3.66,0,0,0-3.44,1.91q-6.68,11.64-13.48,23.2a4.78,4.78,0,0,0,0,5.48q6.85,11.53,13.48,23.19a3.65,3.65,0,0,0,3.66,2c4.54-.13,9.13-.07,13.66-.07Z"/><path class="cls-3" d="M559.31,467.53V441.66c0-3.39.33-3.65,3.18-1.82q15.48,9.36,30.94,18.83a4.33,4.33,0,0,0,5.29-.2c7.16-4.62,14.41-9.14,21.65-13.65,2.75-1.71,3-1.55,3.65,1.72a102.32,102.32,0,0,1,1.44,19.93,127.74,127.74,0,0,1-1.11,21c-.46,2.76-.73,3-3.07,1.54-7.87-4.77-15.78-9.48-23.63-14.29a2.76,2.76,0,0,0-3.24,0Q578.26,484.88,562,495c-.69.43-1.37,1.31-2.22.91s-.48-1.66-.48-2.52V467.53ZM421.47,411.47c.95-10.46,0-21,.82-31.39a4.17,4.17,0,0,0-2.65-4.57c-7.54-3.76-15-7.76-22.46-11.71-2.38-1.26-2.41-1.82-.26-3.65a140.26,140.26,0,0,1,35.21-21.21c2.18-.91,2.6-.6,2.56,2-.15,8.78-.27,17.57-.53,26.34a4.42,4.42,0,0,0,2.7,4.6c11,5.72,21.92,11.54,33,17.33,2.12,1.13,2.14,1.52,0,2.72q-17,9.92-34.15,19.78l-11.6,6.72c-2,1.15-2.56.9-2.61-1.35C421.43,415.18,421.47,413.32,421.47,411.47ZM423,517.33c.38.2.82.42,1.26.68l46.08,26.65c.57.32,1.39.45,1.46,1.24s-.88,1.13-1.52,1.48c-10.95,6-21.71,12-32.62,17.9a4.07,4.07,0,0,0-2.41,4.23c.39,8.51.68,17,1,25.57.11,3.27-.18,3.47-3.25,2.2a144.59,144.59,0,0,1-35-20.7c-1.73-1.4-1.09-2.06.4-2.88,7.53-4.15,15-8.41,22.62-12.46a3.65,3.65,0,0,0,2.22-4.15c-.43-5.88-.54-11.8-.73-17.69q-.33-9.87-.54-19.75c-.1-.86-.39-1.95,1-2.32Zm-12.6-51.23v26.1c0,.73.34,1.61-.52,2.06s-1.27-.23-1.82-.56q-16.17-9.72-32.31-19.53a3.14,3.14,0,0,0-3.87,0c-7.31,4.68-14.78,9.14-22.12,13.85-1.57,1-2.16.82-2.39-1.08a150.71,150.71,0,0,1,.14-39.41c.42-3,1.08-3.35,3.65-1.83,6.31,3.82,12.55,7.54,18.73,11.51a6.14,6.14,0,0,0,7.72,0c10-6.52,20.09-12.79,30.27-19,2.35-1.46,2.64-1.3,2.66,1.52v26.35Zm139.85,61.11c-.95,10.45,0,20.93-.84,31.38a3.9,3.9,0,0,0,2.24,4.15c7,3.65,13.87,7.3,20.77,11.08,2.52,1.36,2.54,1.83.4,3.46A143.39,143.39,0,0,1,540,596.73c-2.52,1.07-3,.8-3-1.92.11-7.85.24-15.69.51-23.54a4.12,4.12,0,0,0-2.65-4.3q-16.44-8.6-32.6-17.38c-2.63-1.43-2.59-1.83,0-3.38q22.61-13,45.24-26c2.26-1.3,2.67-1,2.7,1.66ZM537.14,338l1.27.47A143.42,143.42,0,0,1,571,357.17c2.54,1.94,2.45,2.21-.29,3.65-6.74,3.66-13.46,7.42-20.22,11.05a3.35,3.35,0,0,0-2,3.91c.49,5.28.29,10.62.62,15.93.44,7.14.5,14.32.62,21.5,0,2.9-.29,3.12-2.76,1.7-10-5.78-20.09-11.6-30-17.39-5-2.91-10.14-5.72-15.16-8.66-2.6-1.53-2.54-2,0-3.43,10.81-5.92,21.59-11.87,32.43-17.72a3.66,3.66,0,0,0,2.2-3.8c-.35-7.07-.61-14.15-.88-21.24v-3.54a1.19,1.19,0,0,1,1.52-1.15Z"/><path class="cls-1" d="M737.18,559.28h0l4.89,5.45q-12.78,19.59-40,19.59h0q-40,0-40-40.86h0q0-4.34.13-13.34t.13-14.66h0v-73H638.38v-9.22l26.12-2.74,12-43.83h24l-.81,44.09h36.74v11.7h-37V545.64q0,22.05,18,22.05h0Q725.47,567.69,737.18,559.28Zm168.74,9.78h0L925,571.24V580H848.5v-8.71l20.15-2.44q.52-31,.52-54.46h0V478.71q0-17.46-5.7-25T846.57,446h0q-16.85,0-36.71,18.23h0v50.08q0,31,.82,54.72h0l17.67,2.18V580H752.7v-8.71l20.41-2.44q.52-31.6.52-54.46h0V373.09L751,371.46v-7.89l55-12,4.33,2.75-1.07,44.08V455q24.48-28.56,53.34-28.56h0q42.75,0,42.75,54.42h0v33.49Q905.4,537.5,905.92,569.06Z"/><rect class="cls-1" x="96.44" y="650.35" width="220.24" height="4.29"/><rect class="cls-1" x="683.32" y="650.35" width="220.24" height="4.29"/><path class="cls-1" d="M357.89,645h-4.63q-.39-7-9.22-7.46h0q-8.24.21-8.24,6.43h0q0,4,4.42,4.63h0l10.42,2.4q8.28,2,8.28,10.08h0q-.23,10.25-14.5,10.64h0q-7.85,0-11.06-3.22h0q-4-3-3.82-9.26h4.85q.17,8.44,10,8.66h0q9.65-.21,9.86-6.22h0q.83-5.05-8.06-6.65h0l-7.63-1.62q-7.84-2.19-7.85-8.84h0q.6-10.84,12.87-11.23h0Q357.5,633.32,357.89,645ZM366,634.3h5v36.8h-5Zm48.84,0v36.8h-4.85v-31h0l-10.42,31h-5.06l-10.24-31H384c0,1.48.06,3.7.18,6.64h0v2.62h0v21.7h-5V634.3h7.25l10.63,31.18,10.46-31.18Zm22.9,4h-10V651.2h9.82q7.68,0,7.68-6.65h0q0-6-7.46-6.22Zm1.63,17.29H427.65V671.1h-5V634.3h16.68q10.41.44,10.85,10.25h0q-.6,10.68-10.85,11.07Zm16.85-21.32h5.06v32.38h18.7v4.42H456.17Zm34.18,32.38h22.12v4.42H485.33V634.3h26.76v4.25H490.35V650h20.11v4.41H490.35Zm78.21-32.38v36.8h-4.84v-31h0l-10.47,31h-5l-10.25-31h-.17c0,1.48,0,3.7.17,6.64h0v2.62h0v21.7h-5V634.3h7.25l10.63,31.18,10.47-31.18Zm31.56,36.8-3.64-10.64H581.6l-3.82,10.64h-5l13.9-36.8h5.62l13.25,36.8Zm-11.06-31.35L583.23,656h11.45l-5.41-16.25Zm30.36-1.2H606.94V634.3H636.7v4.25H624.22V671.1h-4.8Zm26.72,10.85h19.29V634.3h5v36.8h-5V654H646.14V671.1h-5V634.3h5Z"/></svg>