<svg xmlns="http://www.w3.org/2000/svg" viewBox="0 0 607.04 700"><defs><style>.cls-1,.cls-2{fill:#3299bb;}.cls-1{fill-opacity:0;}.cls-3{fill:#424242;}</style></defs><g id="图层_2" data-name="图层 2"><g id="SM"><rect class="cls-1" width="607.04" height="700"/><polygon class="cls-2" points="209.34 403.49 209.34 294.18 114.79 240.21 114.79 349.07 209.34 403.49"/><polygon class="cls-3" points="114.79 240.21 209.34 184.86 303.88 240.21 209.34 295.11 114.79 240.21"/><polygon class="cls-2" points="398.44 403.49 398.44 294.18 492.99 240.21 492.99 349.07 398.44 403.49"/><polygon class="cls-3" points="492.99 240.21 398.44 184.86 303.88 240.21 398.44 295.11 492.99 240.21"/><polygon class="cls-3" points="397.27 403.33 302.75 458.22 303.56 567.1 397.7 512.43 397.27 403.33"/><polygon class="cls-2" points="303.56 567.1 208.22 513.12 208.61 403.56 303.54 457.76 303.56 567.1"/><polygon class="cls-2" points="511.61 338.18 511.61 228.87 606.16 174.9 606.16 283.75 511.61 338.18"/><polygon class="cls-3" points="606.16 174.9 511.61 119.55 417.05 174.9 511.61 229.78 606.16 174.9"/><polygon class="cls-2" points="95.42 338.93 95.42 229.62 0.86 175.66 0.86 284.51 95.42 338.93"/><polygon class="cls-3" points="0.86 175.66 95.42 120.31 189.97 175.66 95.42 230.54 0.86 175.66"/><polygon class="cls-2" points="207.95 536.7 302.75 591.13 302.48 700 208.07 645.81 207.95 536.7"/><polygon class="cls-3" points="302.48 700 397.55 645.55 396.62 535.98 301.95 590.67 302.48 700"/><polygon class="cls-3" points="94.47 364.11 94.66 473.41 0.18 527.53 0 418.68 94.47 364.11"/><polygon class="cls-2" points="0.18 527.53 94.82 582.74 189.29 527.23 94.65 472.49 0.18 527.53"/><polygon class="cls-2" points="417.68 525.01 512.37 470.38 606.36 525.31 512.08 579.71 417.68 525.01"/><polygon class="cls-3" points="606.36 525.31 607.04 415.74 511.84 361.5 511.55 470.83 606.36 525.31"/><polygon class="cls-3" points="398 163.83 303.51 108.87 304.4 0 398.49 54.73 398 163.83"/><polygon class="cls-2" points="304.4 0 209.02 53.91 209.31 163.47 304.3 109.33 304.4 0"/></g></g></svg>