<svg xmlns="http://www.w3.org/2000/svg" viewBox="0 0 800 273.9"><defs><style>.cls-1,.cls-2{fill:#3299bb;}.cls-1{fill-opacity:0;}.cls-3{fill:#424242;}</style></defs><g id="图层_2" data-name="图层 2"><g id="JSS"><rect class="cls-1" width="237.53" height="273.9"/><polygon class="cls-2" points="81.91 157.88 81.91 115.11 44.91 93.99 44.91 136.59 81.91 157.88"/><polygon class="cls-3" points="44.91 93.99 81.91 72.33 118.91 93.99 81.91 115.47 44.91 93.99"/><polygon class="cls-2" points="155.91 157.88 155.91 115.11 192.9 93.99 192.9 136.59 155.91 157.88"/><polygon class="cls-3" points="192.9 93.99 155.91 72.33 118.91 93.99 155.91 115.47 192.9 93.99"/><polygon class="cls-3" points="155.45 157.82 118.46 179.3 118.78 221.9 155.62 200.51 155.45 157.82"/><polygon class="cls-2" points="118.78 221.9 81.47 200.78 81.63 157.91 118.77 179.12 118.78 221.9"/><polygon class="cls-2" points="200.19 132.33 200.19 89.55 237.19 68.44 237.19 111.03 200.19 132.33"/><polygon class="cls-3" points="237.19 68.44 200.19 46.78 163.19 68.44 200.19 89.91 237.19 68.44"/><polygon class="cls-2" points="37.34 132.62 37.34 89.85 0.34 68.73 0.34 111.33 37.34 132.62"/><polygon class="cls-3" points="0.34 68.73 37.34 47.08 74.33 68.73 37.34 90.21 0.34 68.73"/><polygon class="cls-2" points="81.37 210.01 118.46 231.3 118.36 273.9 81.42 252.7 81.37 210.01"/><polygon class="cls-3" points="118.36 273.9 155.56 252.6 155.19 209.73 118.15 231.13 118.36 273.9"/><polygon class="cls-3" points="36.97 142.47 37.04 185.24 0.07 206.42 0 163.82 36.97 142.47"/><polygon class="cls-2" points="0.07 206.42 37.1 228.02 74.07 206.3 37.03 184.88 0.07 206.42"/><polygon class="cls-2" points="163.43 205.43 200.49 184.06 237.26 205.55 200.37 226.83 163.43 205.43"/><polygon class="cls-3" points="237.26 205.55 237.53 162.68 200.28 141.45 200.17 184.23 237.26 205.55"/><polygon class="cls-3" points="155.73 64.11 118.76 42.6 119.11 0 155.93 21.41 155.73 64.11"/><polygon class="cls-2" points="119.11 0 81.79 21.09 81.9 63.97 119.07 42.78 119.11 0"/><path class="cls-2" d="M443.15,44V227.93H419V73.14h0L366.75,227.93h-25.1L290.38,73.14h-1q0,11,1,33.17h0v13.06h0V227.93H265.24V44h36.19l53.28,155.78L407,44Zm54.28,90.46h-21.1q1-45.25,55.3-45.25h0q48.23,2,49.25,38.2h0v77.4q0,8,8,8h3a16.78,16.78,0,0,1,5-1h0v16.08h-5a43.87,43.87,0,0,1-8,1h0q-24.15,0-23.12-19.09h0q-20.12,20.11-49.25,20.11h0q-40.22-2-42.24-37.21h0q1-36.18,41.21-42.2h0l37.21-4q12-2,12-16.07h0q0-22.09-32.15-22.09h0Q499.45,108.33,497.43,134.46Zm61.32,47.23h0V159.56q-8,5-37.17,9.06h0q-28.16,2-28.15,21.1h0q0,23.13,23.12,23.12h0Q555.74,209.84,558.75,181.69ZM669.32,93.25v19.08H647.19v87.45q0,11,13.1,11h9v17.11h-17.1q-29.15,0-28.15-26.13h0V112.33H607V93.25h17.06V56h23.12V93.25ZM800,136.44h0v91.49H777.87V140.47q1-31.15-27.12-30.16h0q-36.18,1-37.21,44.22h0v73.4H690.42V44h23.12v67.34h1q16.06-22.14,39.19-22.13h0Q799,90.2,800,136.44Z"/></g></g></svg>