<svg id="JSS" xmlns="http://www.w3.org/2000/svg" viewBox="0 0 1000 1000"><defs><style>.cls-1{fill:#f0b619;fill-opacity:0;}.cls-2{fill:#2da2dc;}.cls-2,.cls-3{fill-rule:evenodd;}.cls-3,.cls-4{fill:#e4511f;}</style></defs><g id="LOGO"><rect class="cls-1" x="81.89" y="81.82" width="836.21" height="836.36"/><path class="cls-2" d="M568.68,353.62a159.3,159.3,0,1,1-138.2,0V213.91C273.87,252.08,177.85,410,216,566.58S412.07,819.21,568.68,781,821.31,585,783.15,428.37A291.88,291.88,0,0,0,568.68,213.91Z"/><path class="cls-3" d="M781.26,189.6c171,155.76,183.43,420.69,27.67,591.73-143,157-380.81,182.18-553.49,58.59A60.36,60.36,0,0,0,310.23,780v-3.9c153,104.78,362,65.69,466.74-87.31s65.69-362-87.31-466.73-362-65.69-466.74,87.31A335.74,335.74,0,0,0,247,719.91a60.37,60.37,0,0,0-57,59.89v1.73C34.89,609.89,48.29,345,219.93,189.91,379.29,45.91,621.75,45.77,781.26,189.6Z"/><path class="cls-4" d="M456.94,209.54h81.5V521.35h-81.5Z"/><path class="cls-2" d="M249.81,739a41,41,0,1,1-41,41h0A41,41,0,0,1,249.81,739Z"/></g></svg>