<svg id="JSS" xmlns="http://www.w3.org/2000/svg" viewBox="0 0 1000 1000"><defs><style>.cls-1{fill:#2da2dc;}.cls-1,.cls-2{fill-rule:evenodd;}.cls-2,.cls-3{fill:#e4511f;}.cls-4{fill:#f0b619;}</style></defs><g id="TITLE"><path class="cls-1" d="M313.63,447.34a57.3,57.3,0,1,1-49.72,0V397.08a105,105,0,1,0,49.72,0Z"/><path class="cls-2" d="M390.11,388.33a150.69,150.69,0,0,1-189.17,234,21.71,21.71,0,0,0,19.71-21.54v-1.41a120.76,120.76,0,1,0-22.75-20.22,21.7,21.7,0,0,0-20.5,21.54v.62A150.69,150.69,0,0,1,390.11,388.33Z"/><path class="cls-3" d="M273.43,395.5h29.32V507.68H273.43Z"/><path class="cls-1" d="M198.92,586a14.76,14.76,0,1,1-14.76,14.75h0A14.75,14.75,0,0,1,198.92,586Z"/><path class="cls-4" d="M498.66,413.46h29.28V605.69Q529.18,649,483.36,649h-8.92V624.79h3.81q22.9,2.51,20.41-21.66h0Zm0-62.38h29.28v31.79H498.66Zm194.74,112h-28q0-29.3-40.76-29.29h0q-31.8,1.26-33.1,24.17h0q-2.55,16.54,30.59,22.91h0l29.28,6.37q48.33,11.49,47.08,45.83h0Q696,584,632.33,586.59h0q-72.6,0-73.86-57.31H585.2q2.55,35.64,47.13,35.65h0q36.9-1.26,38.15-28h0q2.57-15.3-33.09-24.22h0l-34.34-7.62q-39.46-10.17-39.46-40.76h0q2.5-52.2,64.88-56h0Q689.58,409.6,693.4,463.1Zm163,0h-28q0-29.3-40.76-29.29h0q-31.8,1.26-33.09,24.17h0Q752,474.53,785.1,480.89h0l29.28,6.37q48.33,11.49,47.08,45.83h0q-2.55,50.94-66.18,53.5h0q-72.6,0-73.86-57.31h26.73q2.55,35.64,47.13,35.65h0q36.9-1.26,38.15-28h0q2.57-15.3-33.09-24.22h0L766,505.11q-39.46-10.17-39.46-40.76h0q2.51-52.2,64.88-56h0Q852.53,409.6,856.35,463.1Z"/></g></svg>