<svg id="JSS" xmlns="http://www.w3.org/2000/svg" viewBox="0 0 1000 1000"><defs><style>.cls-1{fill:#38b137;}.cls-2{fill:none;stroke:#333;stroke-miterlimit:33.26;stroke-width:13.31px;}.cls-3{fill:#3780ff;}.cls-4{fill:#90f;}</style></defs><path class="cls-1" d="M127.79,493.26H96.44v50.09H80.36V417.57H75V401.49h52.79a40.52,40.52,0,0,1,17,3.71,48.32,48.32,0,0,1,14.34,10A48.93,48.93,0,0,1,169,429.85a42.39,42.39,0,0,1,3.72,17.45h0A42.12,42.12,0,0,1,169,464.81a50.63,50.63,0,0,1-9.89,14.62,46.67,46.67,0,0,1-14.34,10.12A40.37,40.37,0,0,1,127.79,493.26ZM96.44,477h31.35A24.72,24.72,0,0,0,138,474.71a33.45,33.45,0,0,0,9.17-6.19,31.06,31.06,0,0,0,6.69-9.39,27.06,27.06,0,0,0,2.6-11.83h0a26.52,26.52,0,0,0-2.6-11.77,32.62,32.62,0,0,0-6.69-9.39,31.29,31.29,0,0,0-9.17-6.28,24.73,24.73,0,0,0-10.21-2.29H96.44ZM273,483.59v58.33H256v-7a15.84,15.84,0,0,0-2.29,1.43h0a58.73,58.73,0,0,1-13.16,5.58h0a43.47,43.47,0,0,1-9,2.16,61.77,61.77,0,0,1-7.74.54h0a37.5,37.5,0,0,1-8.34-.82,52.79,52.79,0,0,1-6.31-1.88h0a27.56,27.56,0,0,1-9.77-6.37,25.58,25.58,0,0,1-5.9-9.3h0a24.36,24.36,0,0,1-1.43-6.82,21.57,21.57,0,0,1,1.55-9.58A32.15,32.15,0,0,1,201.1,499q5.44-5.6,16.4-10.54h0a91,91,0,0,1,12.78-4.72q7-2.07,13.16-3.52T253.75,478h0a9.8,9.8,0,0,1,1.88-.22h0q-.23-.79-.42-1.62h0a12,12,0,0,0-3.49-6.82h0q-5.16-4.75-16.94-4.12h0a40.34,40.34,0,0,0-12,2.57,63.82,63.82,0,0,0-9.67,4.63,50.66,50.66,0,0,0-6.6,4.57h0l-2.47,2-11.77-12.15,3.42-3a59.28,59.28,0,0,1,8.76-6.09,86,86,0,0,1,13.1-6.19,52.42,52.42,0,0,1,16.37-3.3h0q19.18-1,29.28,8.85h0a27.17,27.17,0,0,1,5.68,7.43,37,37,0,0,1,2.88,7.64,30.82,30.82,0,0,1,1.05,6.69c.06,2,.1,3.55.1,4.67Zm-25.38,12.75h0q-5.55,1.28-11.83,3.11a87.6,87.6,0,0,0-11.27,4.12h0q-2.06,1.05-5.13,2.67a29.93,29.93,0,0,0-5.68,3.93,17.28,17.28,0,0,0-4,4.95,6.62,6.62,0,0,0-.44,5.58h0a9.34,9.34,0,0,0,2.06,3,13.09,13.09,0,0,0,4.85,3,24.19,24.19,0,0,0,8.06,1.33,37.68,37.68,0,0,0,11.64-1.94h0a47.52,47.52,0,0,0,9.39-3.93,37.54,37.54,0,0,0,6.5-4.54h0a34.49,34.49,0,0,0,4.32-4.31h0V494.69Q252.32,495.32,247.57,496.34Zm125.17-7v50.91H355.2V489.36a18.43,18.43,0,0,0-1.84-8.15,22.36,22.36,0,0,0-4.95-6.73,25.15,25.15,0,0,0-7.1-4.63,21.39,21.39,0,0,0-8.57-1.74h0a21.8,21.8,0,0,0-8.34,1.65,24.4,24.4,0,0,0-7.14,4.44,23.7,23.7,0,0,0-5,6.5,18.79,18.79,0,0,0-2.16,7.8h0v51.77H292.52V468.71h-6.19V451.2h23.73v6.19a43.37,43.37,0,0,1,10.72-5.18,39.38,39.38,0,0,1,12-1.84h0a39.2,39.2,0,0,1,15.36,3.08,40.55,40.55,0,0,1,21.44,20.94,36,36,0,0,1,3.2,15Z"/><path class="cls-2" d="M387.14,512.06V390.91l77.19,48.37m77.18,72.78V390.91L438.68,455.4l-51.54-32.73M464.33,505l77.18,48.36V432.19m-154.37,0V553.34L490,488.86l51.53,32.73"/><path class="cls-3" d="M600,541.73h0a41.15,41.15,0,0,1-17.1-3.61,43.29,43.29,0,0,1-14-10,49,49,0,0,1-9.48-14.76,46,46,0,0,1-3.53-18.05h0a46.26,46.26,0,0,1,3.53-17.95,47,47,0,0,1,9.48-14.72,44,44,0,0,1,14-9.9,41.15,41.15,0,0,1,17.1-3.61h0a42,42,0,0,1,23.09,7h0V415.73h-9.67V399.65h26v142.5H623.13v-7.43A40.77,40.77,0,0,1,600,541.73Zm0-76.32h0a25,25,0,0,0-10.82,2.38,29.65,29.65,0,0,0-8.88,6.41,28.66,28.66,0,0,0-6,9.48,31.35,31.35,0,0,0-2.16,11.64h0a32.07,32.07,0,0,0,2.16,11.74,28.85,28.85,0,0,0,6,9.61,29.21,29.21,0,0,0,8.88,6.38A25,25,0,0,0,600,525.43h0a25.4,25.4,0,0,0,13-3.49,31.83,31.83,0,0,0,10.08-9.52h0V478.61a30.77,30.77,0,0,0-10.08-9.68A25.24,25.24,0,0,0,600,465.41Zm94.44,73.44h0a35.33,35.33,0,0,1-14.44-3,36.81,36.81,0,0,1-11.86-8.24,38.75,38.75,0,0,1-7.93-12.38,39.76,39.76,0,0,1-2.89-15.16h0V464.4h-3.71V448.09h20v52a23.13,23.13,0,0,0,1.69,8.88,24.61,24.61,0,0,0,4.41,7.24,20.3,20.3,0,0,0,6.59,4.82,19.26,19.26,0,0,0,8.16,1.77h0a19,19,0,0,0,7.83-1.65,21.36,21.36,0,0,0,6.6-4.66,22.29,22.29,0,0,0,4.54-6.91,24.7,24.7,0,0,0,1.87-8.44h0V448.72h16.27V537.2H715.32V532a35.59,35.59,0,0,1-9.8,5A34.23,34.23,0,0,1,694.48,538.85Zm94.24,4.72h0a37.39,37.39,0,0,1-16.4-3.71,43.15,43.15,0,0,1-13.51-10.09,49.63,49.63,0,0,1-12.56-33.21h0a49,49,0,0,1,3.39-18.24,47.42,47.42,0,0,1,9.17-14.84,43.9,43.9,0,0,1,13.51-10,37.53,37.53,0,0,1,16.4-3.71h0a38.83,38.83,0,0,1,18.94,4.85,43.41,43.41,0,0,1,15.07,13.93h0l-13.39,9.07q-8.05-11.55-20.62-11.54h0a22.84,22.84,0,0,0-10.21,2.37,25.27,25.27,0,0,0-8.35,6.48,31.83,31.83,0,0,0-5.58,9.7,34.35,34.35,0,0,0-2.06,12h0a34.35,34.35,0,0,0,2.06,12,33.74,33.74,0,0,0,5.58,9.8,24.85,24.85,0,0,0,8.35,6.6,22.72,22.72,0,0,0,10.21,2.38h0q12.57,0,20.62-11.58h0l13.39,9.07a43,43,0,0,1-15.07,13.93A38.72,38.72,0,0,1,788.72,543.57Zm66.78-29.5v26.84H839.22V416.75h-4.34V400.48H855.5v92.78l58.37-47.42,10.31,12.56-37.53,30.33L925,531.42l-12,10.92-39-43.3Z"/><rect class="cls-4" x="90.86" y="593.3" width="222.22" height="3.17"/><rect class="cls-4" x="686.92" y="593.3" width="222.22" height="3.17"/><path class="cls-4" d="M348.91,581.42v27.22h-3.55v-22.9h0l-7.74,22.9h-3.71l-7.58-22.9h-.16c0,1.1.05,2.74.16,4.92h0v1.93h0v16h-3.75V581.42h5.36l7.9,23.07,7.71-23.07Zm23.35,27.22-2.67-7.87h-11l-2.83,7.87h-3.71l10.25-27.22h4.15l9.84,27.22Zm-8.18-23.19-4.32,12h8.47l-4-12Zm28.54,11.45h-8.91v11.74H380V581.42h12.62q9.08,0,9.08,7.3h0a7,7,0,0,1-3.87,6.54h0c2.18.59,3.26,2.32,3.26,5.2h0l.32,4.91c-.1,1.38.34,2.27,1.33,2.67h0v.6h-4.6a42.67,42.67,0,0,1-.6-6.85h0q.16-4.89-4.92-4.89Zm.32-12.49h-9.23v9.35h8.63q5.49,0,5.49-4.75h0q0-4.6-4.89-4.6Zm22,10.56-4.32,4v9.67H406.9V581.42h3.71v13.23l13.26-13.23h5.2l-11.45,11,11.74,16.21h-4.92Zm35.24,3.55v-17.1h3.71V599q-.45,9.82-11.13,10.12h0q-10-.29-10.41-9.52h0V581.42h3.71v17.1q.17,7.46,6.85,7.58h0q7.28-.12,7.27-7.58Zm21-14.11h-7.43v9.51H471c3.76,0,5.65-1.64,5.65-4.91h0c0-3-1.84-4.5-5.52-4.6Zm1.2,12.78h-8.63v11.45H460V581.42h12.34c5.14.22,7.82,2.74,8,7.59h0q-.45,7.89-8,8.18Zm45.78-7.74h-3.56Q513.24,584,507,583.8h0q-8.62.45-8.91,11h0q0,11.3,9.07,11.29h0q6.23-.12,7.71-7.58h3.58q-1.65,10.28-12,10.57h0q-11.89-.45-12.18-14.12h0q.6-13.71,12.78-14.28h0Q516.66,581,518.12,589.45Zm26.17,5.65h0q-.57-10.7-9.52-11.3h0q-9,.45-9.52,11.3h0q.48,10.56,9.52,11h0Q543.73,605.53,544.29,595.1Zm3.74,0h0q-.88,13.54-13.26,14h0q-12.46-.45-13.35-14h0q.72-14.11,13.35-14.41h0Q547.15,581.14,548,595.1Zm8.76-13.68,13.67,22v-22H574v27.22h-4.15l-13.83-22h-.16v22h-3.55V581.42Zm25,0,7.71,23.19,7.9-23.19h4.16l-10,27.22h-4l-10-27.22Zm27.35,24H625.5v3.27H605.42V581.42h19.76v3.15h-16V593H624v3.27H609.13Zm34.19-8.47h-8.91v11.74H630.7V581.42h12.62q9.07,0,9.08,7.3h0a7,7,0,0,1-3.87,6.54h0q3.3.88,3.3,5.2h0l.28,4.91c-.1,1.38.34,2.27,1.33,2.67h0v.6h-4.6a42.67,42.67,0,0,1-.6-6.85h0q.16-4.89-4.92-4.89Zm.32-12.49h-9.23v9.35H643q5.49,0,5.49-4.75h0q0-4.6-4.89-4.6Zm21,.16h-9.23v-3.15h22v3.15h-9.23v24.07h-3.55Z"/></svg>