<svg xmlns="http://www.w3.org/2000/svg" viewBox="0 0 792.99 800"><defs><style>.cls-1{fill:#8dc63f;}</style></defs><g id="图层_2" data-name="图层 2"><g id="YGG"><path class="cls-1" d="M476,418.82q-.19-10.33-.85-20.85h0q-1.51-24.36-5.48-49.73a336.45,336.45,0,0,0-36,16.23,453.14,453.14,0,0,1,4.2,77.47v.47c0,1.12-.08,2.24-.13,3.36,0,.55-.06,1.11-.08,1.65l-.15,2.78-.15,2.43c0,.71-.09,1.45-.14,2.18-.09,1.42-.2,2.82-.31,4.19a1.87,1.87,0,0,1,0,.47c-.13,1.68-.28,3.36-.44,5l0,.41c-.15,1.53-.3,3-.47,4.57,0,.22-.05.43-.07.65-.16,1.49-.34,3-.52,4.47a3.12,3.12,0,0,1-.05.44q-1.25,10-3,19.77l-.07.38q-.4,2.21-.84,4.38l-.11.57c-.3,1.49-.6,3-.92,4.46l-.06.29c-.34,1.6-.7,3.19-1.06,4.78a.35.35,0,0,1-.06.23c-.32,1.37-.65,2.74-1,4.11-.15.62-.3,1.24-.46,1.86-.2.8-.4,1.58-.61,2.38s-.41,1.59-.62,2.39c-.15.56-.31,1.11-.46,1.67-.26,1-.52,1.91-.79,2.84-.06.22-.13.44-.19.66a300.76,300.76,0,0,1-47.19,96.36Q375,626,372,629.76c-30-15.14-74.85-26-123.46-29.49Q230.83,599,213,599.07a312,312,0,0,0-25.7-49A340.15,340.15,0,0,0,139.45,491C98.5,450.66,50.32,424.26,0,414.53q.71,15.12,2.58,30.24.6,4.8,1.31,9.57c39,9.87,76.37,31.7,108.93,63.74a302.32,302.32,0,0,1,59.37,82.71A521.7,521.7,0,0,0,69,619.83,397.29,397.29,0,0,0,93.8,652.47a476.91,476.91,0,0,1,152.12-14.23c42.16,3,76.74,11.63,99.7,21.29a372.89,372.89,0,0,1-59.79,48,469.41,469.41,0,0,1-74.61,39.2,395.2,395.2,0,0,0,46.18,20.68,484.64,484.64,0,0,0,49.12-28.09,407.67,407.67,0,0,0,71-58.14c11,11.91,23.59,29.28,33.63,53.4a233.42,233.42,0,0,1,15.3,56.84q9.51-.71,19-1.89t18.75-2.79A271.91,271.91,0,0,0,446.3,720c-2.94-7-6.07-13.62-9.32-19.76,20.58-3.22,48.3-4.67,70.33-4.17,28.22.64,48.79,3.84,62.58,7.85a291.53,291.53,0,0,1-5-40.27c-16.17-3.19-35.65-5.12-56.7-5.59-34.76-.79-70.67,2.37-93.6,7.92q-5.65-7.07-11.94-13.59,3-3.79,5.81-7.66a339.19,339.19,0,0,0,39.27-69.07q4.52-10.71,8.31-21.8a.86.86,0,0,1,.07-.21c.48-1.38,1-2.77,1.42-4.17l.53-1.65L459,545a361.12,361.12,0,0,0,9.5-37.08,387.53,387.53,0,0,0,6.18-44.21c.05-.45.08-.89.12-1.33v-.25c24,16.11,47.26,40.94,69.33,74.09A489.62,489.62,0,0,1,571,582q1.95-9.78,4.49-19.56c2.84-10.87,6.16-21.63,9.93-32.2q-4.77-7.76-9.65-15.1c-30.56-45.9-64.07-78.25-99.68-96.31ZM124.29,218.54s7.2-30.16-7.31-51.3S71.75,142,71.75,142s-7.2,30.15,7.31,51.3S124.29,218.54,124.29,218.54ZM51.7,342.76C73,328.53,77.57,297.87,77.57,297.87s-30-7.6-51.39,6.63S.31,349.4.31,349.4,30.37,357,51.7,342.76Z"/><path class="cls-1" d="M216.41,425.8s-3.78-30.78-24.76-45.53-51.22-7.89-51.22-7.89,3.78,30.77,24.77,45.53S216.41,425.8,216.41,425.8Zm47.78-187.54s-13.25,28-3.4,51.71S299.87,324,299.87,324s13.24-28,3.39-51.72S264.19,238.26,264.19,238.26Zm56.26-37.35c-6.17,24.89,11.15,50.61,11.15,50.61s27.32-14.65,33.49-39.54S354,161.37,354,161.37,326.62,176,320.45,200.91ZM431.83,51.09c20.86-14.9,24.4-45.73,24.4-45.73s-30.29-6.59-51.15,8.34-24.35,45.75-24.35,45.75S411,66,431.83,51.09ZM340.94,748.2c-11.06,23.15.71,51.8.71,51.8s29.72-8.84,40.78-32-.71-51.8-.71-51.8S352,725.07,340.94,748.2Zm182-27.47c-23-11.35-51.79,0-51.79,0s8.45,29.8,31.43,41.19,51.8,0,51.8,0-8.45-29.83-31.44-41.2ZM485.45,580.81c-2.28,25.54,18.77,48.3,18.77,48.3s24.76-18.66,27-44.21-18.78-48.3-18.78-48.3S487.73,555.27,485.45,580.81Zm-149.33-42.7c-15.61,20.37-9.93,50.85-9.93,50.85s30.9-2.54,46.48-22.91,9.94-50.85,9.94-50.85S351.71,517.74,336.12,538.11ZM214.71,549.68s26.35,16.32,51,9.23S304,524,304,524s-26.35-16.32-51-9.22S214.71,549.68,214.71,549.68ZM113.07,577.49s-9.44-29.54-32.8-40.13-51.8,1.78-51.8,1.78,9.44,29.53,32.8,40.11S113.07,577.49,113.07,577.49Zm570.82-328S706.4,270.75,732,268.79s44.51-26.53,44.51-26.53S754,221,728.41,222.93,683.89,249.47,683.89,249.47Zm-43.37-81s21.6-22.26,19.94-47.81-26-44.85-26-44.85-21.6,22.23-20,47.82,26,44.84,26,44.84ZM460.31,224.68s28.55,12.11,51.8,1.32,32.45-40.41,32.45-40.41-28.55-12.11-51.8-1.32S460.31,224.68,460.31,224.68Zm95.43,106.37c-25.44-3.31-49,16.82-49,16.82s17.65,25.48,43.08,28.8,49.05-16.82,49.05-16.82S581.17,334.36,555.74,331.05Zm15.39,129.32c18.45,17.8,49.4,15.65,49.4,15.65s1-31-17.48-48.78-49.41-15.65-49.41-15.65S552.66,442.58,571.13,460.37Zm124.3,89.78s-20.85,22.94-18.34,48.46,27.43,44,27.43,44,20.85-22.94,18.35-48.46S695.43,550.15,695.43,550.15Z"/><path class="cls-1" d="M112.47,278.67c-7.51,19.44-20.11,44.17-31.58,63C66.23,365.79,53.17,382,42.8,391.94a291.18,291.18,0,0,1,37.38,15.78c10.85-12.41,22.26-28.31,33.2-46.31,18.06-29.71,33.27-62.39,39.94-85,6.43-1,12.36-2.21,17.74-3.55A340.17,340.17,0,0,0,253.36,393l1,.92,2,1.9q1.59,1.47,3.2,2.92c.75.71,1.51,1.35,2.26,2l1.83,1.61,2.29,2,1.58,1.36q2.26,1.94,4.58,3.84l1.19,1c.88.71,1.79,1.42,2.68,2.18l1.36,1.08q4.33,3.45,8.79,6.81c.58.44,1.16.88,1.75,1.31l1.42,1.07q5.15,3.79,10.45,7.45c-26,12.72-59.11,20.44-98.83,23a489.34,489.34,0,0,1-53.07.36q7.47,6.59,14.69,13.66,12,11.83,22.91,24.72,9.09-.23,17.9-.8c55-3.55,99.82-16.38,133.26-38.19a523,523,0,0,0,63,29.26,335.43,335.43,0,0,0,4-39.37,448.1,448.1,0,0,1-73.36-38q-10.11-6.56-19.6-13.62l-1.55-1.16q-2.18-1.63-4.3-3.28l-1.22-.95c-.71-.54-1.38-1.09-2.06-1.64l-1.91-1.52-1.75-1.42c-1.21-1-2.42-2-3.61-3l-.14-.11q-2-1.68-3.95-3.39l-.33-.28C252.18,342,224.13,302.8,206,257.68c28.15-18.45,60-51.8,87.27-92.14,6-8.92,12.42-19,18.88-30.29a303.1,303.1,0,0,0,39.82,2.54q7.62,0,15.38-.35a340.09,340.09,0,0,0,75.07-11.9C497.79,110.23,544.73,81.72,578.31,43a391.12,391.12,0,0,0-36.46-16.49c-28,28.77-65.63,50.23-109.59,62.37A302.46,302.46,0,0,1,331,99a521.54,521.54,0,0,0,35.1-99q-9.36.71-18.74,1.88-11,1.37-21.89,3.34a477,477,0,0,1-63.77,139c-23.67,35-48.45,60.66-68.27,75.74l-.29-1.07c-8.13-31-12.18-64.68-12-99.94a486,486,0,0,1,4-59.06,398.2,398.2,0,0,0-41,29.49q-.94,14.87-1,29.4c-.18,38.57,4.26,75.49,13.25,109.74q1.1,4.14,2.26,8.23c-15.82,3.55-37.14,5.79-63,2.42A233.79,233.79,0,0,1,38.67,224Q30.47,241.12,23.91,259a272,272,0,0,0,66.78,17.84Q101.54,278.26,112.47,278.67Z"/><path class="cls-1" d="M650.15,307.83a374.39,374.39,0,0,1,71.45,27.78A470.26,470.26,0,0,1,793,380.73q-.66-17-2.75-34.06-1-8.16-2.37-16.25a485.68,485.68,0,0,0-49-28.72A407,407,0,0,0,653,269.3c4.81-15.49,13.56-35.07,29.42-55.83A234.07,234.07,0,0,1,724,171.79q-10.77-15.78-22.9-30.36a272.29,272.29,0,0,0-48.89,48.95q-6.95,9.1-12.46,18c-13-16.23-28.16-39.47-38.75-58.83-13.56-24.77-21.06-44.17-24.49-58.13a290.13,290.13,0,0,1-32.36,24.48c5.32,15.61,13.39,33.44,23.5,51.91,16.7,30.51,37.4,60,53.67,77.1C618.93,251,617,256.69,615.5,262q-4.79-.67-9.55-1.2c-49.86-5.55-99.83,0-148.51,16.42a391.44,391.44,0,0,0-42.82,17.43c2-28.88,11.86-61.43,29.51-97.11a488.67,488.67,0,0,1,26.22-46.12q-9.44,3.18-19.16,5.89c-10.82,3-21.8,5.47-32.86,7.47q-4.33,8-8.26,15.92c-24.46,49.44-35.72,94.65-33.55,134.52A520.15,520.15,0,0,0,318.63,356a335.17,335.17,0,0,0,32.06,23.1c81.12-62.92,165.47-90,251.09-80.48q4.72.54,9.45,1.21c1.88,33.59,14.85,77.85,36.19,121.66q7.82,16,16.79,31.48a310,310,0,0,0-29.61,46.83,340.3,340.3,0,0,0-27.24,71c-14.43,55.6-13.22,110.47,3.48,158.89a397.83,397.83,0,0,0,32.55-23.22c-10.92-38.66-10.69-82,.77-126.11a300.9,300.9,0,0,1,42-92.84,521.77,521.77,0,0,0,68.11,79.88A395.83,395.83,0,0,0,770,529.47a477.12,477.12,0,0,1-88.41-124.66c-18.5-38-28.3-72.28-31.43-97ZM261.56,89.64C270.86,65.75,257,38,257,38s-29,11-38.27,34.94,4.6,51.62,4.6,51.62S252.26,113.53,261.56,89.64ZM247.43,683s-24.05-19.6-49.4-15.68-42.4,29.81-42.4,29.81,24.05,19.56,49.4,15.67,42.4-29.8,42.4-29.8Z"/><path class="cls-1" d="M719,383s-4.93,30.61,11.12,50.61,47,21.82,47,21.82S782,424.82,766,404.82,719,383,719,383Z"/></g></g></svg>