<svg xmlns="http://www.w3.org/2000/svg" viewBox="0 0 754.17 800"><defs><style>.cls-1{fill:#8dc63f;}</style></defs><g id="图层_2" data-name="图层 2"><g id="YGG"><path class="cls-1" d="M428.93,273q-.14-6.74-.56-13.58h0q-1-15.88-3.58-32.41a218.73,218.73,0,0,0-23.48,10.57A295,295,0,0,1,404,288v.31c0,.73,0,1.46-.08,2.19,0,.36,0,.72-.06,1.07l-.09,1.82-.1,1.58c0,.46-.06.95-.09,1.42q-.09,1.38-.21,2.73a1.67,1.67,0,0,1,0,.31c-.09,1.09-.18,2.19-.29,3.27l0,.27c-.1,1-.2,2-.31,3,0,.14,0,.28,0,.42-.11,1-.23,1.95-.34,2.92a2.89,2.89,0,0,1,0,.29q-.81,6.52-2,12.87l-.05.25c-.18,1-.36,1.92-.55,2.86l-.07.37q-.29,1.46-.6,2.91l0,.19c-.22,1-.45,2.08-.69,3.11a.27.27,0,0,1,0,.15c-.21.9-.43,1.79-.64,2.68l-.3,1.21c-.13.52-.27,1-.4,1.55s-.27,1-.41,1.56-.2.73-.29,1.09c-.17.62-.35,1.24-.52,1.85,0,.14-.08.29-.13.43a195.93,195.93,0,0,1-30.75,62.8q-1.84,2.49-3.76,4.95c-19.57-9.87-48.78-17-80.46-19.22q-11.56-.81-23.17-.79a202.78,202.78,0,0,0-16.75-31.94A221.93,221.93,0,0,0,209.57,320c-26.69-26.3-58.09-43.5-90.89-49.84q.46,9.85,1.69,19.7c.25,2.09.54,4.17.85,6.24,25.39,6.43,49.77,20.66,71,41.54a197.16,197.16,0,0,1,38.69,53.91A339.54,339.54,0,0,0,163.63,404a260.64,260.64,0,0,0,16.18,21.27A311,311,0,0,1,279,416c27.48,1.95,50,7.58,65,13.88a243.58,243.58,0,0,1-39,31.3,306.42,306.42,0,0,1-48.62,25.54,258.13,258.13,0,0,0,30.09,13.48,317.66,317.66,0,0,0,32-18.31A265.45,265.45,0,0,0,364.71,444a117.52,117.52,0,0,1,21.92,34.8,152.47,152.47,0,0,1,10,37q6.19-.46,12.39-1.24t12.21-1.81a177.29,177.29,0,0,0-11.65-43.51c-1.92-4.59-4-8.88-6.08-12.88a284.7,284.7,0,0,1,45.83-2.72c18.4.42,31.8,2.51,40.79,5.12a189.85,189.85,0,0,1-3.27-26.24,221.26,221.26,0,0,0-36.95-3.65c-22.66-.51-46.06,1.55-61,5.16q-3.69-4.61-7.79-8.85,1.94-2.48,3.79-5a220,220,0,0,0,25.59-45q3-7,5.42-14.21a.48.48,0,0,1,.05-.14c.3-.9.61-1.8.92-2.71l.35-1.08.6-1.85A233.74,233.74,0,0,0,424,331a251.92,251.92,0,0,0,4-28.82c0-.29.05-.58.08-.87v-.16c15.66,10.5,30.8,26.69,45.19,48.29a321.23,321.23,0,0,1,17.49,29.83q1.28-6.36,2.93-12.74,2.78-10.64,6.47-21-3.1-5.06-6.29-9.84c-19.92-29.91-41.76-51-65-62.77ZM199.68,142.43s4.7-19.66-4.76-33.44-29.48-16.47-29.48-16.47-4.69,19.65,4.76,33.43S199.68,142.43,199.68,142.43Zm-47.3,81c13.9-9.28,16.86-29.27,16.86-29.27s-19.58-5-33.49,4.33-16.86,29.26-16.86,29.26S138.47,232.66,152.38,223.39Z"/><path class="cls-1" d="M259.72,277.5s-2.46-20.06-16.14-29.67-33.38-5.14-33.38-5.14,2.47,20.05,16.14,29.67S259.72,277.5,259.72,277.5Zm31.14-122.22s-8.63,18.27-2.22,33.7,25.47,22.19,25.47,22.19,8.63-18.26,2.22-33.7S290.86,155.28,290.86,155.28Zm36.67-24.35c-4,16.23,7.26,33,7.26,33s17.81-9.55,21.83-25.77-7.26-33-7.26-33S331.55,114.71,327.53,130.93Zm72.59-97.64C413.71,23.58,416,3.5,416,3.5S396.27-.8,382.68,8.93s-15.87,29.81-15.87,29.81S386.53,43,400.12,33.29ZM340.88,487.62c-7.21,15.08.46,33.76.46,33.76s19.37-5.77,26.58-20.85-.46-33.75-.46-33.75S348.09,472.54,340.88,487.62Zm118.61-17.91c-15-7.39-33.76,0-33.76,0s5.51,19.42,20.49,26.84,33.76,0,33.76,0-5.51-19.44-20.49-26.85Zm-24.43-91.19C433.57,395.17,447.29,410,447.29,410s16.14-12.16,17.63-28.81-12.24-31.47-12.24-31.47S436.55,361.88,435.06,378.52ZM337.74,350.7c-10.17,13.27-6.47,33.14-6.47,33.14s20.13-1.66,30.29-14.93S368,335.76,368,335.76,347.9,337.42,337.74,350.7Zm-79.12,7.54s17.17,10.63,33.22,6,24.94-22.78,24.94-22.78-17.17-10.64-33.24-6S258.62,358.24,258.62,358.24Zm-66.25,18.12s-6.15-19.25-21.37-26.15-33.76,1.16-33.76,1.16,6.15,19.24,21.37,26.14S192.37,376.36,192.37,376.36Zm372-213.78s14.67,13.88,31.34,12.59,29-17.29,29-17.29S610.06,144,593.4,145.29,564.39,162.58,564.39,162.58Zm-28.27-52.81s14.08-14.51,13-31.16-16.91-29.23-16.91-29.23-14.08,14.49-13,31.17,16.92,29.22,16.92,29.22ZM418.68,146.43s18.6,7.89,33.75.86S473.58,121,473.58,121s-18.6-7.89-33.76-.86S418.68,146.43,418.68,146.43Zm62.19,69.32c-16.58-2.15-31.95,11-31.95,11s11.51,16.61,28.08,18.77,32-11,32-11S497.44,217.91,480.87,215.75Zm10,84.28c12,11.6,32.19,10.2,32.19,10.2s.65-20.19-11.39-31.79-32.2-10.2-32.2-10.2S478.86,288.44,490.9,300Zm81,58.51s-13.59,14.95-12,31.59,17.88,28.67,17.88,28.67,13.59-14.95,12-31.59S571.91,358.54,571.91,358.54Z"/><path class="cls-1" d="M192,181.62a282.69,282.69,0,0,1-20.58,41c-9.56,15.72-18.07,26.28-24.82,32.76a190.7,190.7,0,0,1,24.36,10.29,220.55,220.55,0,0,0,21.63-30.18c11.77-19.36,21.69-40.66,26-55.41,4.2-.65,8.06-1.44,11.56-2.31a221.65,221.65,0,0,0,53.64,78.33l.65.6,1.32,1.24,2.08,1.9c.49.47,1,.88,1.48,1.32l1.19,1.06,1.49,1.29,1,.89c1,.84,2,1.67,3,2.5l.77.64c.58.46,1.17.92,1.75,1.42l.88.71q2.83,2.23,5.73,4.43l1.14.86.93.69c2.23,1.65,4.51,3.27,6.81,4.86-16.94,8.29-38.52,13.32-64.41,15a321.7,321.7,0,0,1-34.58.24q4.86,4.29,9.57,8.9,7.81,7.71,14.93,16.11,5.92-.15,11.67-.52c35.87-2.31,65-10.68,86.84-24.89a341.07,341.07,0,0,0,41.05,19.07,216.72,216.72,0,0,0,2.58-25.66A293.28,293.28,0,0,1,333.88,264q-6.58-4.27-12.77-8.88l-1-.76c-.94-.7-1.87-1.42-2.8-2.13l-.79-.62c-.47-.35-.91-.71-1.35-1.07l-1.24-1-1.15-.93c-.78-.64-1.57-1.29-2.34-1.94l-.1-.08c-.86-.73-1.72-1.46-2.57-2.2l-.22-.19a198.6,198.6,0,0,1-54.63-76.3c18.34-12,39.1-33.75,56.88-60.05,3.93-5.81,8.09-12.4,12.3-19.74a196,196,0,0,0,26,1.66c3.31,0,6.66-.08,10-.23A222,222,0,0,0,407,81.82c36.11-10,66.7-28.56,88.59-53.79a254.84,254.84,0,0,0-23.77-10.74C453.55,36,429.05,50,400.39,57.93a197.06,197.06,0,0,1-66,6.57A340.79,340.79,0,0,0,357.29,0q-6.1.47-12.22,1.23-7.17.89-14.26,2.17A310.61,310.61,0,0,1,289.25,94c-15.43,22.83-31.58,39.53-44.49,49.36-.07-.23-.13-.46-.19-.7a252.6,252.6,0,0,1-7.83-65.13A317.64,317.64,0,0,1,239.34,39a258.37,258.37,0,0,0-26.71,19.22Q212,67.94,212,77.41a277.17,277.17,0,0,0,8.64,71.52q.71,2.7,1.47,5.37A118,118,0,0,1,181,155.87a152.36,152.36,0,0,1-37.1-9.89q-5.34,11.16-9.61,22.84a177.32,177.32,0,0,0,43.52,11.63Q184.86,181.35,192,181.62Z"/><path class="cls-1" d="M542.39,200.62A242.89,242.89,0,0,1,589,218.73a305.46,305.46,0,0,1,46.53,29.4q-.42-11.1-1.8-22.2-.66-5.33-1.54-10.59a318,318,0,0,0-32-18.71,265.29,265.29,0,0,0-56-21.12,117.56,117.56,0,0,1,19.18-36.39A152.79,152.79,0,0,1,590.51,112q-7-10.29-14.92-19.79a177.57,177.57,0,0,0-31.86,31.91q-4.53,5.92-8.12,11.7a287.2,287.2,0,0,1-25.26-38.34c-8.83-16.14-13.72-28.79-16-37.88a190,190,0,0,1-21.09,16,221.59,221.59,0,0,0,15.32,33.83c10.88,19.88,24.37,39.11,35,50.25-1.54,4-2.77,7.7-3.78,11.16-2.07-.29-4.15-.55-6.22-.78a223.41,223.41,0,0,0-96.78,10.71A254.83,254.83,0,0,0,388.9,192c1.29-18.82,7.73-40,19.23-63.28a318.07,318.07,0,0,1,17.09-30.06q-6.15,2.07-12.49,3.84c-7.05,1.94-14.21,3.56-21.41,4.87q-2.83,5.22-5.39,10.37C370,150,362.65,179.46,364.07,205.44A339.17,339.17,0,0,0,326.34,232a218.92,218.92,0,0,0,20.89,15.05c52.87-41,107.84-58.64,163.64-52.44q3.07.34,6.17.78c1.22,21.89,9.67,50.74,23.58,79.29q5.1,10.45,10.94,20.52a201.8,201.8,0,0,0-19.3,30.52A221.85,221.85,0,0,0,514.51,372c-9.41,36.23-8.61,72,2.27,103.55q11-7,21.21-15.13c-7.11-25.2-7-53.42.51-82.19a196.16,196.16,0,0,1,27.34-60.51,339.79,339.79,0,0,0,44.4,52.06,258.14,258.14,0,0,0,10.26-24.68,311,311,0,0,1-57.62-81.23c-12.06-24.76-18.44-47.12-20.49-63.21ZM289.14,58.42c6.07-15.57-3-33.63-3-33.63S267.27,32,261.2,47.56s3,33.64,3,33.64S283.09,74,289.14,58.42Zm-9.2,386.72s-15.67-12.78-32.2-10.22-27.63,19.42-27.63,19.42,15.67,12.76,32.19,10.22,27.64-19.42,27.64-19.42Z"/><path class="cls-1" d="M587.24,249.61s-3.21,19.94,7.25,33,30.63,14.22,30.63,14.22,3.21-19.94-7.25-33S587.24,249.61,587.24,249.61Z"/><path class="cls-1" d="M51.87,684.65A8.22,8.22,0,0,1,46,682.27a7.68,7.68,0,0,1-2.46-5.71h0v-45L1.41,572.67A11.31,11.31,0,0,1,0,567.73H0a8.28,8.28,0,0,1,2.28-5.82A7.43,7.43,0,0,1,8,559.42H8a8.2,8.2,0,0,1,7.22,4.08h0l36.7,53.42L88.53,563.5a8.2,8.2,0,0,1,7.23-4.08h0a8.13,8.13,0,0,1,7.94,7.94h0a13.64,13.64,0,0,1-1.41,5.31h0L60,631.59v45a8.13,8.13,0,0,1-8.09,8.09Zm98.94,41.47a83.31,83.31,0,0,1-20.38-2.64,71.39,71.39,0,0,1-17.37-6.54h0a7,7,0,0,1-3.36-6.36h0a7.39,7.39,0,0,1,2.13-5.12,6.67,6.67,0,0,1,5.09-2.28h0a8.56,8.56,0,0,1,3.18.72h0a65.76,65.76,0,0,0,29.12,6.68h0Q176,710.58,176,682h0V670.74a39.38,39.38,0,0,1-30,13h0a40.75,40.75,0,0,1-20.12-5.31h0a41.08,41.08,0,0,1-16.58-15.93q-6.18-10.5-6.18-24.81h0q0-14.81,6.36-25.39h0a42,42,0,0,1,16-15.32A42.54,42.54,0,0,1,146,591.71h0a39.42,39.42,0,0,1,30,13h0v-3.87a8.07,8.07,0,0,1,2.38-5.81,7.67,7.67,0,0,1,5.74-2.49h0a8.46,8.46,0,0,1,8.28,8.3h0v78.86q0,22.21-10.77,34.28t-30.84,12.1Zm-1.41-57.33a29.86,29.86,0,0,0,14-3.25A53,53,0,0,0,176,655.9h0V619.6A53.11,53.11,0,0,0,163.41,610a29.86,29.86,0,0,0-14-3.25h0q-13.59,0-21.71,8.13t-8.09,22.9h0q0,14.85,8.09,22.94t21.71,8.12Zm112.69,57.33a83.3,83.3,0,0,1-20.37-2.64,71.23,71.23,0,0,1-17.37-6.54h0a7,7,0,0,1-3.36-6.36h0a7.39,7.39,0,0,1,2.13-5.12,6.66,6.66,0,0,1,5.09-2.28h0a8.56,8.56,0,0,1,3.18.72h0a65.75,65.75,0,0,0,29.11,6.68h0q26.81,0,26.81-28.57h0V670.74a39.38,39.38,0,0,1-30,13h0a40.72,40.72,0,0,1-20.12-5.31h0a41.08,41.08,0,0,1-16.58-15.93q-6.18-10.5-6.18-24.81h0q0-14.81,6.36-25.39h0a42,42,0,0,1,16-15.32,42.54,42.54,0,0,1,20.56-5.31h0a39.42,39.42,0,0,1,30,13h0v-3.87a8.07,8.07,0,0,1,2.38-5.81,7.66,7.66,0,0,1,5.74-2.49h0a8.46,8.46,0,0,1,8.28,8.3h0v78.86q0,22.21-10.77,34.28t-30.85,12.1Zm-1.4-57.33a29.89,29.89,0,0,0,14-3.25,53,53,0,0,0,12.61-9.64h0V619.6A53.11,53.11,0,0,0,274.7,610a29.89,29.89,0,0,0-14-3.25h0q-13.59,0-21.71,8.13t-8.09,22.9h0q0,14.85,8.09,22.94t21.71,8.12Zm107.93,16.76A40.79,40.79,0,0,1,348,679.88h0a41,41,0,0,1-16.22-16.47,50.27,50.27,0,0,1-6-24.78h0q0-14.29,6.14-25h0a42.59,42.59,0,0,1,15.71-16.25,41.1,41.1,0,0,1,21-5.64h0q17.29,0,30,13.22h0V562.09a7.9,7.9,0,0,1,2.45-5.92,8.19,8.19,0,0,1,5.85-2.39h0a7.6,7.6,0,0,1,5.71,2.5,8,8,0,0,1,2.38,5.81h0V676.56a8.13,8.13,0,0,1-8.09,8.09h0a8.22,8.22,0,0,1-5.85-2.38,7.67,7.67,0,0,1-2.45-5.71h0V672.3q-12.69,13.25-30,13.25Zm2.31-15.35a33.16,33.16,0,0,0,14.88-3.54,43.91,43.91,0,0,0,12.79-9.5h0V620.1a44.09,44.09,0,0,0-12.79-9.5,33.16,33.16,0,0,0-14.88-3.54h0q-13.44,0-21.1,8.38t-7.66,23.19h0q0,14.8,7.66,23.19t21.1,8.38Zm79.72,14.45a7.88,7.88,0,0,1-5.75-2.38,7.8,7.8,0,0,1-2.38-5.71h0V600.88a8.07,8.07,0,0,1,2.38-5.81,7.68,7.68,0,0,1,5.75-2.49h0a8.46,8.46,0,0,1,8.27,8.3h0v7q12.16-16.21,27.52-16.22h.87a7.45,7.45,0,0,1,5.63,2.38,8,8,0,0,1,2.32,5.75h0a7.19,7.19,0,0,1-2.39,5.52A8.28,8.28,0,0,1,487,607.6h-.87a30.37,30.37,0,0,0-15.24,3.94,35.43,35.43,0,0,0-11.92,11.38h0v53.64a7.68,7.68,0,0,1-2.46,5.71,8.18,8.18,0,0,1-5.81,2.38Zm82.53.9a33,33,0,0,1-14.3-3.18h0A24.72,24.72,0,0,1,508.11,673a26.13,26.13,0,0,1-3.86-14.12h0q0-13.74,10.66-21.24T545,630.18h21.17v-1.27q0-11.26-5.56-16.47t-17.92-5.2h0a61.56,61.56,0,0,0-11.45,1,87.53,87.53,0,0,0-12,3.25h0l-2.31.36a6.39,6.39,0,0,1-4.66-2,6.73,6.73,0,0,1-2-4.88h0a6.92,6.92,0,0,1,4.76-6.86h0a76.58,76.58,0,0,1,30.49-6.36h0q12.16,0,20.84,4.95h0a31.2,31.2,0,0,1,12.17,12.6,37.31,37.31,0,0,1,4,17.38h0v49.92a7.68,7.68,0,0,1-2.46,5.71,8.22,8.22,0,0,1-5.85,2.38h0a8.13,8.13,0,0,1-8.09-8.09h0V672.3q-12.72,13.25-33,13.25Zm6-14.48a32.18,32.18,0,0,0,14.7-3.61A40.56,40.56,0,0,0,566.16,658h0V643.4H547.09q-26.45,0-26.44,13.76h0q0,13.9,18.53,13.91Zm99.3,14.48a67.34,67.34,0,0,1-32.3-7.94h0a6.92,6.92,0,0,1-3-6h0a7.21,7.21,0,0,1,2-5,6.53,6.53,0,0,1,5-2.2h0a7.14,7.14,0,0,1,3.18.68h0a63.87,63.87,0,0,0,11.66,4,53.49,53.49,0,0,0,12.32,1.33h0q19.44,0,19.43-12.35h0q0-3.87-4.26-6h0q-4.41-2.13-14.81-4.77h0a105.89,105.89,0,0,1-17.08-5.09h0a28,28,0,0,1-12.18-8.49,21.38,21.38,0,0,1-4.58-13.94h0q0-12.5,9.17-20.26t25.4-7.77h0a70.84,70.84,0,0,1,25.57,4.41h0a7.14,7.14,0,0,1,5.27,6.9h0a7.13,7.13,0,0,1-2.09,5,6.87,6.87,0,0,1-5.13,2.2h0l-2.28-.36a69.91,69.91,0,0,0-20.12-3.18h0q-9.16,0-14.63,3.36t-5.49,8.81h0a8,8,0,0,0,4.77,7.59h0a96.59,96.59,0,0,0,15.35,4.77h0q9.54,2.44,16.94,5.09h0a26.8,26.8,0,0,1,11.64,8.56q4.4,5.75,4.4,14.38h0a23.25,23.25,0,0,1-9.17,18.89q-9.18,7.4-25,7.4Zm63.13-110.06a8.69,8.69,0,0,1-6.42-2.74,8.82,8.82,0,0,1-2.75-6.43h0v-.73a8.8,8.8,0,0,1,2.75-6.42,8.7,8.7,0,0,1,6.42-2.75h1a9.4,9.4,0,0,1,9.18,9.17h0v.73a8.82,8.82,0,0,1-2.75,6.43,8.72,8.72,0,0,1-6.43,2.74h-1ZM702,684.65a7.88,7.88,0,0,1-5.75-2.38,7.8,7.8,0,0,1-2.38-5.71h0V600.88a8.07,8.07,0,0,1,2.38-5.81,7.68,7.68,0,0,1,5.75-2.49h0a8.15,8.15,0,0,1,8.27,8.3h0v75.68a7.68,7.68,0,0,1-2.46,5.71,8.18,8.18,0,0,1-5.81,2.38Zm43.88,0a8.14,8.14,0,0,1-8.09-8.09h0V562.09a8,8,0,0,1,2.39-5.81,7.59,7.59,0,0,1,5.7-2.5h0a8.15,8.15,0,0,1,8.31,8.31h0V676.56a7.68,7.68,0,0,1-2.46,5.71,8.22,8.22,0,0,1-5.85,2.38Z"/><path class="cls-1" d="M76.53,782.63H64.4V778.1H81.77v21.25H78.29l-1.29-5q-4.59,5.42-13.06,5.65h0q-8,0-12.37-4.12h0q-6.48-6.07-6.3-16.72h0q1.53-19.77,18.9-20.61h0q14.77.84,17,13H75.88q-2.17-8.25-11.94-8.48h0q-12.37.88-13,16.3h0q0,16.49,13.25,16.49h0a13.42,13.42,0,0,0,8.24-2.59h0q4.35-3.48,4.12-10.66Zm32.56-.41h-13v17.13H90.66V759.62h18.43q13.25,0,13.24,10.65h0a10.13,10.13,0,0,1-5.65,9.54h0c3.21.86,4.82,3.4,4.82,7.59h0l.42,7.18q-.24,3,1.94,3.89h0v.88h-6.71a59.13,59.13,0,0,1-.88-10h0q.23-7.14-7.18-7.13Zm.46-18.25H96.08v13.66h12.59q8,0,8-6.94h0q0-6.72-7.13-6.72Zm46.68,35.38-3.94-11.48H136.23l-4.13,11.48h-5.41l15-39.73h6.07l14.31,39.73ZM144.28,765.5,138,783.05h12.37l-5.88-17.55ZM205,759.62v39.73h-5.19V765.92h0l-11.3,33.43h-5.41l-11.07-33.43h-.23c0,1.6.07,4,.23,7.17h0v2.83h0v23.43h-5.42V759.62h7.78L186,793.29l11.3-33.67Zm46,0v39.73h-5.19V765.92h0l-11.29,33.43h-5.42L218.1,765.92h-.23q0,2.4.23,7.17h0v2.83h0v23.43h-5.47V759.62h7.83L232,793.29l11.26-33.67Zm34.08,39.73-3.89-11.48H265.2l-4.13,11.48h-5.46l15-39.73h6.07L291,799.35ZM273.21,765.5l-6.3,17.55h12.36l-5.83-17.55Zm41.68,16.72h-13v17.13h-5.42V759.62h18.44q13.23,0,13.24,10.65h0a10.13,10.13,0,0,1-5.65,9.54h0c3.18.86,4.77,3.4,4.77,7.59h0l.46,7.18q-.22,3,2,3.89h0v.88h-6.72a61.37,61.37,0,0,1-.88-10h0c.16-4.76-2.24-7.13-7.17-7.13Zm.46-18.25H301.87v13.66h12.6q8,0,8-6.94h0q0-6.72-7.13-6.72Zm65.53,18.66H368.74V778.1h17.37v21.25h-3.47l-1.3-5q-4.59,5.42-13.06,5.65h0q-8,0-12.36-4.12h0q-6.54-6.07-6.3-16.72h0q1.53-19.77,18.89-20.61h0q14.78.84,16.95,13h-5.23q-2.18-8.25-12-8.48h0q-12.36.88-13,16.3h0q0,16.49,13.24,16.49h0a13.42,13.42,0,0,0,8.24-2.59h0q4.37-3.48,4.13-10.66Zm19.54,12h23.89v4.77H395V759.62h28.85v4.58H400.42v12.37h21.72v4.77H400.42Zm37.32-35,20,32.14V759.62h5.19v39.73h-6.07l-20.19-32.14h-.23v32.14h-5.19V759.62Zm39.5,35h23.9v4.77H471.83V759.62h28.89v4.58H477.24v12.37H499v4.77H477.24Zm50-12.36H514.15v17.13h-5.42V759.62h18.48q13.2,0,13.2,10.65h0a10.15,10.15,0,0,1-5.6,9.54h0c3.18.86,4.77,3.4,4.77,7.59h0l.41,7.18q-.22,3,2,3.89h0v.88h-6.72a61.37,61.37,0,0,1-.88-10h0q.24-7.14-7.13-7.13Zm.42-18.25H514.15v13.66h12.6q8.06,0,8.06-6.94h0q0-6.72-7.18-6.72Zm46.68,35.38-3.94-11.48H554.3l-4.12,11.48h-5.42l15-39.73h6.06l14.31,39.73ZM562.36,765.5l-6.3,17.55h12.37l-5.84-17.55Zm32.79-1.3H581.67v-4.58h32.14v4.58H600.33v35.15h-5.18Zm24.31-4.58h5.42v39.73h-5.42Zm46,20h0q-.83-15.62-13.89-16.49h0q-13.2.64-13.89,16.49h0q.69,15.42,13.89,16.07h0Q664.62,794.81,665.44,779.58Zm5.47,0h0q-1.3,19.77-19.36,20.42h0q-18.19-.64-19.49-20.42h0q1.07-20.61,19.49-21h0Q669.61,759.21,670.91,779.58Zm12.78-20,20,32.14V759.62h5.23v39.73h-6.06l-20.19-32.14h-.24v32.14h-5.18V759.62Z"/></g></g></svg>