<svg id="YGG" xmlns="http://www.w3.org/2000/svg" viewBox="0 0 1000 1000"><defs><style>.cls-1{fill:#7ac943;}</style></defs><path class="cls-1" d="M644.74,731.79c49.56-4.67,98.61-20.47,146.45-41.45,4.66-2.37,9.33-4.09,14-6.46-56.59-44.89-132.44-60.11-206-75.27-8.19-1.79-16.38-3.52-24.49-4.67-5.24,51.36,47.26,110.32,70,127.85ZM215.83,505.34A455.71,455.71,0,0,0,296.92,608c-18.1-40.87-8.77-82.31-4.1-99.76a309.84,309.84,0,0,1-36.77-25.71c-28.58-22.19-60.11-45.46-81.73-77.07a301.93,301.93,0,0,0,8.76,30.39,597.7,597.7,0,0,0,32.75,69.45ZM467.35,709.59c-45.47-53.72-43.81-117.28-42.59-143-18.68-5.82-37.35-12.86-55.45-20.47a490.66,490.66,0,0,1-62.48-30.88C289.3,547.35,308,603.37,322,629a444.89,444.89,0,0,0,145.37,80.58Z"/><path class="cls-1" d="M620.25,732.93h1.8c-56.67-43.73-63.63-111.46-66-133.58-38.5-8.19-76.42-16.38-113.77-27.44-13.43,53.15,33.83,127.77,49.56,144.72C532.7,728.27,576.51,733.51,620.25,732.93Z"/><path class="cls-1" d="M613.79,747.51A430.78,430.78,0,0,1,552,743.42a150.34,150.34,0,0,0-25.14,9.34C476.68,775,427.06,819.26,406,835.57A346.2,346.2,0,0,0,479,849a352.47,352.47,0,0,0,178-33.26c34.48-16.37,65.93-37.92,93.94-62.48A475.54,475.54,0,0,0,786.45,720l7-7c5.82-5.82,11.71-12.21,18.1-18.1A605.48,605.48,0,0,1,727,728.12c-37.85,12.43-75.84,19.39-113.19,19.39ZM235.65,556.11a455.15,455.15,0,0,1-46.1-79.36c-12.21-26.86-22.2-55.44-28-84-1.8,9.34-3.52,18.67-4.67,28A465.1,465.1,0,0,0,153.35,538a471.13,471.13,0,0,1,62.48,12.21C223.44,552.67,230.41,554.32,235.65,556.11ZM518.7,737.6a449.9,449.9,0,0,1-67.15-19.25,487.88,487.88,0,0,1-64.14-29.15,108.2,108.2,0,0,0-23.34,1.14c-48.48,6.47-98,35-119.08,46.11A365.14,365.14,0,0,0,385,828.6c34.47-39.72,81.73-65.36,115-81.73,7-3.45,13.43-7,18.67-9.27Zm-155.78-63c-42-26.29-78.79-59.61-110.32-97a156.94,156.94,0,0,0-24.49-10.49c-23.91-8.18-50.77-11.13-72.39-14A341.73,341.73,0,0,0,233.28,723c39.15-25.71,83.46-37.92,112-44.89C352.36,676.91,358.25,675.69,362.92,674.62Zm-7.61-406.15c-49.63,4.67-98.61,20.4-146.45,41.44-4.66,2.37-9.33,4.1-14,6.47,56.59,44.88,132.44,60.11,206,75.26,8.19,1.8,16.38,3.52,24.49,4.67,5.24-51.42-47.26-110.39-70-127.84ZM784.22,494.85a455.27,455.27,0,0,0-81.09-102.7c18.1,40.86,8.77,82.3,4.1,99.76A309.84,309.84,0,0,1,744,517.62c28.58,22.19,60.11,45.46,81.73,77.06A301.76,301.76,0,0,0,817,564.3c-9.41-23.34-19.9-46.68-32.75-69.45ZM532.7,290.59c45.47,53.72,43.81,117.29,42.59,143,18.68,5.81,37.35,12.85,55.45,20.47a489.34,489.34,0,0,1,62.48,30.88c17.53-32.11-1.15-88.13-15.15-113.77A445.07,445.07,0,0,0,532.7,290.59Z"/><path class="cls-1" d="M557.84,428.34C571.27,375.2,524,300.58,508.28,283.63a471.35,471.35,0,0,0-128.41-16.38h-1.8c56.6,43.81,63.56,111.47,65.94,133.66,38.49,7.54,76.48,16.3,113.83,27.43Zm288.79,33.83A469.52,469.52,0,0,1,784.15,450c-7-1.79-14-4.09-19.83-5.82a455,455,0,0,1,46.11,79.37c12.21,26.86,22.2,55.44,27.44,83.45,1.79-9.34,3.52-18.67,4.67-28a429.6,429.6,0,0,0,4.09-116.78Z"/><path class="cls-1" d="M386.26,252.67a430.78,430.78,0,0,1,61.84,4.09,151.17,151.17,0,0,0,25.14-9.33c50.13-22.19,100.4-66.51,121.37-82.81a345.56,345.56,0,0,0-73-13.43c-61.26-5.24-123.1,7-178,33.25-34.4,16.3-65.93,37.92-93.94,62.41a486.33,486.33,0,0,0-35.55,33.26l-7,7c-5.82,5.82-11.71,12.21-18.1,18.1A605.11,605.11,0,0,1,273.58,272C311,259.71,348.91,252.67,386.26,252.67Zm95.09,9.91a450.75,450.75,0,0,1,67.15,19.25A489.24,489.24,0,0,1,612.64,311,108.22,108.22,0,0,0,636,309.84c48.48-6.46,98-35,119.08-46.11a365.12,365.12,0,0,0-140-92.14c-34.47,39.64-81.73,65.28-115,81.66C493.06,256.76,486.59,260.28,481.35,262.58Zm155.78,63.06c42,26.22,78.79,59.47,109.74,96.81a156,156,0,0,0,24.49,10.49c23.92,8.19,50.78,11.13,72.4,14a340.15,340.15,0,0,0-44.89-124.33,344,344,0,0,0-32.68-45.46c-39.14,25.71-83.45,37.92-112,44.89C647.69,323.27,641.8,324.49,637.13,325.64Z"/></svg>