<svg id="YGG" xmlns="http://www.w3.org/2000/svg" viewBox="0 0 1000 1000"><defs><style>.cls-1{fill:#f1511b;}.cls-2{fill:#7ac943;}</style></defs><path class="cls-1" d="M346.09,343.88,249.7,496.13V599.51H214.78V496.13L118.43,343.88h40.49l72.63,122.93L305.6,343.88Z"/><path class="cls-2" d="M544.68,548.26c16.67-1.57,33.17-6.88,49.26-13.93,1.57-.8,3.14-1.38,4.71-2.18-19-15.1-44.55-20.22-69.28-25.31-2.76-.61-5.51-1.19-8.24-1.57-1.76,17.27,15.9,37.1,23.55,43ZM400.42,472.1a153.35,153.35,0,0,0,27.27,34.54c-6.08-13.74-2.94-27.68-1.37-33.55A103.83,103.83,0,0,1,414,464.44c-9.61-7.46-20.22-15.29-27.49-25.92a100,100,0,0,0,3,10.22,200.07,200.07,0,0,0,11,23.36ZM485,540.8c-15.29-18.07-14.74-39.45-14.33-48.09-6.28-2-12.56-4.33-18.65-6.89a164.7,164.7,0,0,1-21-10.39c-5.9,10.8.38,29.64,5.09,38.27A149.66,149.66,0,0,0,485,540.8Z"/><path class="cls-2" d="M536.45,548.65h.6c-19.06-14.71-21.4-37.49-22.2-44.93-13-2.75-25.7-5.51-38.26-9.23-4.52,17.88,11.37,43,16.66,48.68A151.65,151.65,0,0,0,536.45,548.65Z"/><path class="cls-2" d="M534.27,553.55a144.69,144.69,0,0,1-20.8-1.37,50.88,50.88,0,0,0-8.45,3.14c-16.86,7.46-33.55,22.37-40.63,27.85a115.86,115.86,0,0,0,24.54,4.52,118.52,118.52,0,0,0,59.86-11.19,138,138,0,0,0,31.6-21,159.92,159.92,0,0,0,12-11.19l2.37-2.36c2-2,3.94-4.11,6.09-6.09A202.16,202.16,0,0,1,572.34,547a122.28,122.28,0,0,1-38.07,6.52ZM407.09,489.18a153.35,153.35,0,0,1-15.51-26.69,133.55,133.55,0,0,1-9.42-28.27c-.6,3.14-1.18,6.28-1.57,9.42a156,156,0,0,0-1.18,39.45,158.8,158.8,0,0,1,21,4.11C403,488,405.33,488.57,407.09,489.18Zm95.2,61a151.29,151.29,0,0,1-22.59-6.47,165.76,165.76,0,0,1-21.57-9.81,36.29,36.29,0,0,0-7.85.39c-16.31,2.17-33,11.78-40,15.5a122.89,122.89,0,0,0,47.1,31c11.6-13.36,27.49-22,38.68-27.49,2.37-1.16,4.52-2.35,6.28-3.12ZM449.89,529a159.66,159.66,0,0,1-37.1-32.61,52.39,52.39,0,0,0-8.24-3.53c-8-2.76-17.08-3.75-24.35-4.71a114.93,114.93,0,0,0,26.09,57.1c13.17-8.64,28.07-12.75,37.69-15.09C446.34,529.81,448.32,529.4,449.89,529Zm-2.56-136.61c-16.69,1.57-33.16,6.86-49.25,13.94-1.57.8-3.14,1.38-4.71,2.18,19,15.09,44.54,20.21,69.28,25.31,2.75.6,5.51,1.18,8.24,1.57,1.76-17.29-15.9-37.13-23.56-43Zm144.26,76.14A152.79,152.79,0,0,0,564.32,434c6.09,13.74,2.95,27.68,1.38,33.55a105.48,105.48,0,0,1,12.37,8.65c9.61,7.47,20.22,15.29,27.49,25.92a104.16,104.16,0,0,0-2.95-10.22,197,197,0,0,0-11-23.36ZM507,399.87c15.29,18.07,14.73,39.45,14.32,48.1,6.28,1.95,12.56,4.32,18.65,6.88a165.5,165.5,0,0,1,21,10.39c5.89-10.8-.39-29.64-5.1-38.26A149.64,149.64,0,0,0,507,399.87Z"/><path class="cls-2" d="M515.45,446.2c4.52-17.87-11.37-43-16.66-48.67a158.91,158.91,0,0,0-43.2-5.51H455c19,14.74,21.38,37.49,22.18,45,12.94,2.53,25.72,5.48,38.28,9.22Zm97.14,11.38a157.48,157.48,0,0,1-21-4.1c-2.37-.61-4.71-1.38-6.67-2a152.61,152.61,0,0,1,15.51,26.69,124.22,124.22,0,0,1,9.23,28.07c.6-3.14,1.18-6.28,1.57-9.42a144.84,144.84,0,0,0,1.38-39.28Z"/><path class="cls-2" d="M457.74,387.12a144.69,144.69,0,0,1,20.8,1.38,51.55,51.55,0,0,0,8.46-3.14c16.86-7.47,33.77-22.37,40.82-27.86a118.25,118.25,0,0,0-84.42,6.67,137.94,137.94,0,0,0-31.6,21,162.32,162.32,0,0,0-12,11.19l-2.37,2.36c-2,2-3.93,4.11-6.08,6.09a202.52,202.52,0,0,1,28.45-11.18A122,122,0,0,1,457.74,387.12Zm32,3.33a151.71,151.71,0,0,1,22.58,6.48,163.21,163.21,0,0,1,21.57,9.8,36.38,36.38,0,0,0,7.86-.38c16.3-2.18,33-11.79,40-15.51a122.79,122.79,0,0,0-47.11-31c-11.59,13.33-27.49,21.95-38.67,27.46C493.66,388.5,491.49,389.68,489.73,390.45Zm52.39,21.21A154.34,154.34,0,0,1,579,444.22a52.8,52.8,0,0,0,8.24,3.53c8,2.75,17.08,3.74,24.35,4.71a114.93,114.93,0,0,0-26.09-57.1c-13.16,8.64-28.07,12.75-37.68,15.09C545.67,410.86,543.69,411.27,542.12,411.66Z"/><path class="cls-1" d="M848,492H769.82V462.64H881.55V599.51H859.22l-8.38-32.14Q821.47,602.29,767,603.68h0q-51.64,0-79.62-26.54h0q-41.86-39.09-40.48-107.55h0q9.76-127.09,121.49-132.66h0q95,5.56,109,83.79H843.84q-14-53.09-76.84-54.47h0q-79.62,5.6-83.79,104.77h0q0,106.13,85.18,106.12h0q30.75,0,53.08-16.73h0Q849.45,538,848,492Z"/><path class="cls-2" d="M105.35,628.43l-12.87,20.3v13.79H87.83V648.73L75,628.43h5.4l9.66,16.41L100,628.43ZM135,648.17H124.54v-3.89h14.9v18.24h-3l-1.11-4.29q-3.93,4.63-11.2,4.84h0q-6.89,0-10.61-3.53h0q-5.61-5.2-5.4-14.35h0q1.31-17,16.21-17.68h0q12.68.72,14.54,11.17H134.4q-1.87-7.08-10.25-7.27h0q-10.62.75-11.17,14h0q0,14.15,11.37,14.15h0a11.53,11.53,0,0,0,7.07-2.23h0q3.74-3,3.53-9.14Zm37.07,0H161.57v-3.89h14.9v18.24h-3l-1.11-4.29q-3.9,4.63-11.16,4.84h0q-6.89,0-10.61-3.53h0q-5.61-5.2-5.41-14.35h0q1.32-17,16.21-17.68h0q12.68.72,14.51,11.17h-4.45q-1.87-7.08-10.25-7.27h0q-10.62.75-11.17,14h0q0,14.15,11.36,14.15h0a11.54,11.54,0,0,0,7.08-2.23h0q3.73-3,3.53-9.14Zm25.51,14.35H183.74V628.43h14q13.78.75,14.34,16.56h0q-.75,17.18-14.54,17.53ZM197,632.16h-8.58v26.46h8.94q9.69-.58,10.09-13.23h0q-.19-12.87-10.45-13.23Zm37.27,15.66H223v14.7h-4.65V628.43h15.85q11.37,0,11.36,9.14h0a8.69,8.69,0,0,1-4.84,8.18h0c2.72.74,4.09,2.91,4.09,6.52h0l.36,6.15c-.14,1.73.42,2.84,1.67,3.34h0v.76h-5.77a52,52,0,0,1-.75-8.59h0q.19-6.1-6.12-6.11Zm.36-15.66H223v11.72h10.8q6.91,0,6.92-6h0c0-3.84-2.06-5.76-6.16-5.76Zm40,30.36-3.38-9.86H257.52L254,662.52H249.3l12.87-34.09h5.21l12.27,34.09Zm-10.25-29L259,648.53H269.6l-5-15.06Zm44.34,4.85h-4.29q-.4-6.51-8.59-6.91h0q-7.62.2-7.62,6h0q0,3.74,4.09,4.29h0l9.69,2.22q7.64,1.88,7.63,9.34h0q-.19,9.49-13.39,9.85h0q-7.27,0-10.25-3h0q-3.74-2.77-3.54-8.58h4.45q.21,7.83,9.34,8h0q8.94-.21,9.1-5.76h0q.75-4.69-7.43-6.16h0l-7.07-1.51q-7.28-2-7.27-8.19h0q.56-10,11.92-10.41h0Q308.34,627.51,308.74,638.32Zm7.43-9.89h4.64v34.09h-4.64Zm12.47,0h4.65v30h17.32v4.1h-22Zm65.2,19.74H383.39v-3.89h14.9v18.24h-3l-1.11-4.29q-3.9,4.63-11.17,4.84h0q-6.91,0-10.61-3.53h0q-5.6-5.2-5.4-14.35h0q1.32-17,16.21-17.68h0q12.63.72,14.5,11.17h-4.45q-1.86-7.08-10.25-7.27h0q-10.61.75-11.16,14h0q0,14.15,11.36,14.15h0a11.49,11.49,0,0,0,7.07-2.23h0q3.7-3,3.54-9.14Zm27.93-.35H410.61v14.7h-4.69V628.43h15.85q11.37,0,11.36,9.14h0a8.69,8.69,0,0,1-4.84,8.18h0c2.72.74,4.09,2.91,4.09,6.52h0l.36,6.15c-.11,1.73.46,2.84,1.7,3.34h0v.76h-5.8a49.93,49.93,0,0,1-.71-8.59h0q.15-6.1-6.16-6.11Zm.36-15.66H410.61v11.72h10.8q6.87,0,6.88-6h0c0-3.84-2.06-5.76-6.16-5.76Zm40.05,30.36-3.34-9.86H445.05l-3.53,9.86h-4.65l12.83-34.09h5.21l12.31,34.09Zm-10.25-29-5.41,15.06h10.65l-5.05-15.06Zm52.16-5v34.09H499.6V633.83h0L490,662.52h-4.69l-9.5-28.69h-.15q0,2.07.15,6.16h0v2.42h0v20.11h-4.64V628.43h6.71l9.85,28.88,9.7-28.88Zm39.49,0v34.09H539.1V633.83h0l-9.7,28.69h-4.65l-9.49-28.69h-.2c0,1.38.06,3.43.2,6.16h0v2.42h0v20.11h-4.65V628.43h6.71l9.86,28.88,9.69-28.88Zm29.21,34.09-3.34-9.86H555.66l-3.53,9.86h-4.65l12.83-34.09h5.25l12.27,34.09Zm-10.21-29-5.41,15.06h10.61l-5-15.06Zm35.75,14.35h-11.2v14.7h-4.65V628.43h15.85q11.37,0,11.37,9.14h0a8.7,8.7,0,0,1-4.85,8.18h0q4.1,1.11,4.09,6.52h0l.36,6.15c-.11,1.73.45,2.84,1.67,3.34h0v.76h-5.76a51.68,51.68,0,0,1-.76-8.59h0c.13-4.07-1.9-6.11-6.12-6.11Zm.36-15.66H587.13v11.72h10.81q6.91,0,6.91-6h0q0-5.76-6.16-5.76Zm56.26,16H644.5v-3.89h14.9v18.24h-3l-1.11-4.29q-3.9,4.63-11.17,4.84h0q-6.92,0-10.6-3.53h0q-5.61-5.2-5.41-14.35h0q1.27-17,16.17-17.68h0q12.68.72,14.54,11.17h-4.45q-1.86-7.08-10.25-7.27h0q-10.6.75-11.16,14h0q0,14.15,11.32,14.15h0a11.55,11.55,0,0,0,7.11-2.23h0q3.71-3,3.54-9.14Zm16.77,10.25h20.46v4.1H667V628.43h24.79v3.93h-20.1V643h18.59v4.09H671.72Zm32-30L720.86,656V628.43h4.49v34.09h-5.24l-17.32-27.58h-.16v27.58h-4.49V628.43Zm33.89,30h20.5v4.1H733V628.43h24.75v3.93h-20.1V643h18.63v4.09H737.63Zm42.83-10.6H769.3v14.7h-4.65V628.43h15.81q11.35,0,11.36,9.14h0a8.69,8.69,0,0,1-4.84,8.18h0c2.72.74,4.09,2.91,4.09,6.52h0l.39,6.15c-.13,1.73.43,2.84,1.67,3.34h0v.76h-5.8a49.93,49.93,0,0,1-.71-8.59h0q.15-6.1-6.16-6.11Zm.36-15.66H769.3v11.72h10.8q6.87,0,6.88-6h0c0-3.84-2.06-5.76-6.16-5.76Zm40,30.36-3.34-9.86H803.74l-3.53,9.86h-4.65l12.83-34.09h5.2l12.32,34.09Zm-10.25-29-5.41,15.06h10.65l-5.05-15.06Zm28.12-1.11H827.22v-3.93h27.54v3.93H843.23v30.16h-4.49Zm47.13,13.19h0q-.76-13.39-11.92-14.14h0Q862.58,632,862,645.55h0q.56,13.23,11.92,13.79h0Q885.11,658.62,885.87,645.55Zm4.64,0h0q-1.11,17-16.56,17.52h0q-15.66-.55-16.77-17.52h0q1-17.68,16.77-18h0Q889.4,628.07,890.51,645.55Zm21.82,2.27H901.16v14.7h-4.69V628.43h15.86q11.35,0,11.36,9.14h0a8.7,8.7,0,0,1-4.85,8.18h0q4.1,1.11,4.09,6.52h0l.36,6.15c-.1,1.73.47,2.84,1.71,3.34h0v.76h-5.8a52.83,52.83,0,0,1-.76-8.59h0q.21-6.1-6.11-6.11Zm.35-15.66H901.16v11.72h10.77q6.92,0,6.91-6h0q0-5.76-6.16-5.76Z"/></svg>