<svg xmlns="http://www.w3.org/2000/svg" viewBox="0 0 850 326.14"><defs><style>.cls-1{fill:#f1511b;}.cls-2{fill:#7ac943;}</style></defs><g id="图层_2" data-name="图层 2"><g id="YGG"><path class="cls-1" d="M271.09,7,174.7,159.2V262.58H139.78V159.2L43.43,7H83.92l72.63,122.93L230.6,7Z"/><path class="cls-2" d="M469.68,211.34c16.67-1.57,33.17-6.89,49.26-13.94,1.57-.8,3.14-1.38,4.71-2.18-19-15.09-44.55-20.21-69.28-25.31-2.76-.6-5.51-1.18-8.24-1.57-1.76,17.27,15.9,37.1,23.55,43ZM325.42,135.17a153.63,153.63,0,0,0,27.27,34.55c-6.08-13.75-2.94-27.69-1.37-33.56A102.61,102.61,0,0,1,339,127.52c-9.61-7.47-20.22-15.3-27.49-25.92a100.55,100.55,0,0,0,3,10.21,199.31,199.31,0,0,0,11,23.36Zm84.6,68.7c-15.29-18.07-14.74-39.44-14.33-48.09-6.28-2-12.56-4.33-18.65-6.89a164.64,164.64,0,0,1-21-10.38c-5.9,10.79.38,29.64,5.09,38.26a149.66,149.66,0,0,0,48.9,27.1Z"/><path class="cls-2" d="M461.45,211.72h.6c-19.06-14.71-21.4-37.49-22.2-44.93-13-2.75-25.7-5.5-38.26-9.22-4.52,17.87,11.37,43,16.66,48.67A151.3,151.3,0,0,0,461.45,211.72Z"/><path class="cls-2" d="M459.27,216.63a144.69,144.69,0,0,1-20.8-1.38,50.88,50.88,0,0,0-8.45,3.14c-16.86,7.46-33.55,22.37-40.63,27.85a115.86,115.86,0,0,0,24.54,4.52,118.62,118.62,0,0,0,59.86-11.18,138.38,138.38,0,0,0,31.6-21,161.9,161.9,0,0,0,12-11.18l2.37-2.37c2-2,3.94-4.11,6.09-6.09a203.44,203.44,0,0,1-28.46,11.19,122.57,122.57,0,0,1-38.07,6.52ZM332.09,152.25a152.61,152.61,0,0,1-15.51-26.69,133.66,133.66,0,0,1-9.42-28.26c-.6,3.14-1.18,6.28-1.57,9.42a155.91,155.91,0,0,0-1.18,39.44,158.8,158.8,0,0,1,21,4.11C328,151.09,330.33,151.65,332.09,152.25Zm95.2,61a151.29,151.29,0,0,1-22.59-6.47A164.44,164.44,0,0,1,383.13,197a36.29,36.29,0,0,0-7.85.39c-16.31,2.17-33,11.79-40,15.51a122.76,122.76,0,0,0,47.1,31c11.6-13.36,27.49-22,38.68-27.49,2.37-1.16,4.52-2.34,6.28-3.12Zm-52.4-21.18a159.66,159.66,0,0,1-37.1-32.61,52.39,52.39,0,0,0-8.24-3.53c-8-2.75-17.08-3.74-24.35-4.71a114.6,114.6,0,0,0,15.1,41.82,116.85,116.85,0,0,0,11,15.29c13.17-8.65,28.07-12.76,37.69-15.1C371.34,192.88,373.32,192.47,374.89,192.11Zm-2.56-136.6c-16.69,1.57-33.16,6.86-49.25,13.93-1.57.8-3.14,1.38-4.71,2.18,19,15.1,44.54,20.22,69.28,25.31,2.75.61,5.51,1.19,8.24,1.57,1.76-17.29-15.9-37.12-23.56-43Zm144.26,76.14A152.85,152.85,0,0,0,489.32,97.1c6.09,13.75,2.95,27.69,1.38,33.56a104.22,104.22,0,0,1,12.37,8.64c9.61,7.47,20.22,15.29,27.49,25.92A104.16,104.16,0,0,0,527.61,155a196.09,196.09,0,0,0-11-23.35ZM432,63C447.29,81,446.73,102.39,446.32,111c6.28,2,12.56,4.32,18.65,6.89a164.11,164.11,0,0,1,21,10.38c5.89-10.8-.39-29.64-5.1-38.26A149.62,149.62,0,0,0,432,63Z"/><path class="cls-2" d="M440.45,109.28c4.52-17.88-11.37-43-16.66-48.68a158.91,158.91,0,0,0-43.2-5.51H380c19,14.74,21.38,37.5,22.18,45,12.94,2.54,25.72,5.48,38.28,9.23Zm97.14,11.37a157.48,157.48,0,0,1-21-4.1c-2.37-.61-4.71-1.38-6.67-2a153.35,153.35,0,0,1,15.51,26.69,124.22,124.22,0,0,1,9.23,28.07c.6-3.14,1.18-6.28,1.57-9.42a144.83,144.83,0,0,0,1.38-39.28Z"/><path class="cls-2" d="M382.74,50.19a144.69,144.69,0,0,1,20.8,1.38A51.55,51.55,0,0,0,412,48.43c16.86-7.47,33.77-22.37,40.82-27.85a118.12,118.12,0,0,0-84.42,6.66,138.6,138.6,0,0,0-31.6,21c-4.11,3.53-8.24,7.28-12,11.19l-2.37,2.37c-2,2-3.93,4.1-6.08,6.08a205,205,0,0,1,28.45-11.18A122,122,0,0,1,382.74,50.19Zm32,3.33A151.71,151.71,0,0,1,437.31,60a163.26,163.26,0,0,1,21.57,9.81,36.41,36.41,0,0,0,7.86-.39c16.3-2.17,33-11.79,40.05-15.51a122.79,122.79,0,0,0-47.11-31c-11.59,13.33-27.49,22-38.67,27.46C418.66,51.57,416.49,52.75,414.73,53.52Zm52.39,21.21A154.38,154.38,0,0,1,504,107.3a53.74,53.74,0,0,0,8.24,3.52c8,2.76,17.08,3.75,24.35,4.71a114.93,114.93,0,0,0-26.09-57.1c-13.16,8.65-28.07,12.75-37.68,15.1C470.67,73.94,468.69,74.35,467.12,74.73Z"/><path class="cls-1" d="M773,155H694.82V125.71H806.55V262.58H784.22l-8.38-32.14Q746.47,265.36,692,266.75h0q-51.64,0-79.62-26.54h0q-41.86-39.09-40.48-107.55h0Q581.67,5.57,693.39,0h0q95,5.57,109,83.79H768.84q-14-53.07-76.84-54.47h0q-79.62,5.61-83.79,104.77h0q0,106.13,85.18,106.12h0q30.75,0,53.08-16.72h0q28-22.38,26.54-68.46Z"/><path class="cls-2" d="M30.35,291.5,17.48,311.8v13.79H12.83V311.8L0,291.5H5.4l9.66,16.41L25,291.5ZM60,311.25H49.54v-3.9h14.9v18.24h-3l-1.11-4.29q-3.93,4.65-11.2,4.84h0q-6.88,0-10.61-3.53h0q-5.61-5.21-5.4-14.34h0q1.3-17,16.21-17.68h0q12.67.71,14.54,11.16H59.4q-1.87-7.06-10.25-7.27h0q-10.62.75-11.17,14h0q0,14.15,11.37,14.15h0a11.47,11.47,0,0,0,7.07-2.23h0q3.73-3,3.53-9.13Zm37.07,0H86.57v-3.9h14.9v18.24h-3l-1.11-4.29q-3.9,4.65-11.16,4.84h0q-6.89,0-10.61-3.53h0Q70,317.4,70.2,308.27h0q1.32-17,16.21-17.68h0q12.68.71,14.51,11.16H96.47q-1.87-7.06-10.25-7.27h0q-10.62.75-11.17,14h0q0,14.15,11.36,14.15h0a11.48,11.48,0,0,0,7.08-2.23h0q3.74-3,3.53-9.13Zm25.51,14.34H108.74V291.5h14q13.78.75,14.34,16.57h0q-.75,17.16-14.54,17.52ZM122,295.23h-8.58V321.7h8.94q9.69-.6,10.09-13.24h0q-.19-12.87-10.45-13.23Zm37.27,15.66H148v14.7h-4.65V291.5h15.85q11.37,0,11.36,9.14h0a8.68,8.68,0,0,1-4.84,8.18h0c2.72.74,4.09,2.92,4.09,6.52h0l.36,6.16c-.14,1.72.42,2.83,1.67,3.33h0v.76h-5.77a52,52,0,0,1-.75-8.58h0q.19-6.12-6.12-6.12Zm.36-15.66H148V307h10.8q6.91,0,6.92-5.95h0c0-3.85-2.06-5.77-6.16-5.77Zm40.05,30.36-3.38-9.85H182.52L179,325.59H174.3l12.87-34.09h5.21l12.27,34.09Zm-10.25-29L184,311.6H194.6l-5-15.05Zm44.34,4.84h-4.29q-.4-6.51-8.59-6.91h0q-7.62.19-7.62,6h0q0,3.74,4.09,4.29h0L227,307q7.64,1.88,7.63,9.34h0q-.19,9.49-13.39,9.85h0q-7.27,0-10.25-3h0q-3.73-2.79-3.54-8.59h4.45q.21,7.83,9.34,8h0q8.94-.19,9.1-5.76h0q.75-4.69-7.43-6.16h0l-7.07-1.51q-7.28-2-7.27-8.18h0q.56-10.06,11.92-10.41h0Q233.34,290.59,233.74,301.39Zm7.43-9.89h4.64v34.09h-4.64Zm12.47,0h4.65v30h17.32v4.09h-22Zm65.2,19.75H308.39v-3.9h14.9v18.24h-3l-1.11-4.29q-3.9,4.65-11.17,4.84h0q-6.91,0-10.61-3.53h0q-5.6-5.21-5.4-14.34h0q1.32-17,16.21-17.68h0q12.63.71,14.5,11.16h-4.45q-1.86-7.06-10.25-7.27h0q-10.61.75-11.16,14h0q0,14.15,11.36,14.15h0a11.43,11.43,0,0,0,7.07-2.23h0q3.7-3,3.54-9.13Zm27.93-.36H335.61v14.7h-4.69V291.5h15.85q11.37,0,11.36,9.14h0a8.68,8.68,0,0,1-4.84,8.18h0c2.72.74,4.09,2.92,4.09,6.52h0l.36,6.16c-.11,1.72.46,2.83,1.7,3.33h0v.76h-5.8a49.89,49.89,0,0,1-.71-8.58h0q.15-6.12-6.16-6.12Zm.36-15.66H335.61V307h10.8q6.87,0,6.88-5.95h0c0-3.85-2.06-5.77-6.16-5.77Zm40.05,30.36-3.34-9.85H370.05l-3.53,9.85h-4.65L374.7,291.5h5.21l12.31,34.09Zm-10.25-29-5.41,15.05h10.65l-5.05-15.05Zm52.16-5.05v34.09H424.6V296.9h0L415,325.59h-4.69l-9.5-28.69h-.15q0,2.07.15,6.16h0v2.42h0v20.11h-4.64V291.5h6.71l9.85,28.88,9.7-28.88Zm39.49,0v34.09H464.1V296.9h0l-9.7,28.69h-4.65l-9.49-28.69h-.2c0,1.38.06,3.43.2,6.16h0v2.42h0v20.11h-4.65V291.5h6.71l9.86,28.88,9.69-28.88Zm29.21,34.09-3.34-9.85H480.66l-3.53,9.85h-4.65l12.83-34.09h5.25l12.27,34.09Zm-10.21-29-5.41,15.05h10.61l-5-15.05Zm35.75,14.34h-11.2v14.7h-4.65V291.5h15.85q11.37,0,11.37,9.14h0a8.69,8.69,0,0,1-4.85,8.18h0c2.73.74,4.09,2.92,4.09,6.52h0l.36,6.16c-.11,1.72.45,2.83,1.67,3.33h0v.76h-5.76a51.65,51.65,0,0,1-.76-8.58h0c.13-4.08-1.9-6.12-6.12-6.12Zm.36-15.66H512.13V307h10.81q6.91,0,6.91-5.95h0q0-5.78-6.16-5.77Zm56.26,16H569.5v-3.9h14.9v18.24h-3l-1.11-4.29q-3.9,4.65-11.17,4.84h0q-6.92,0-10.6-3.53h0q-5.61-5.21-5.41-14.34h0q1.27-17,16.17-17.68h0q12.68.71,14.54,11.16h-4.45q-1.86-7.06-10.25-7.27h0q-10.6.75-11.16,14h0q0,14.15,11.32,14.15h0a11.48,11.48,0,0,0,7.11-2.23h0q3.71-3,3.54-9.13Zm16.77,10.25h20.46v4.09H592V291.5h24.79v3.93h-20.1V306h18.59v4.09H596.72Zm32-30,17.12,27.57V291.5h4.49v34.09h-5.24L627.79,298h-.16v27.57h-4.49V291.5Zm33.89,30h20.5v4.09H658V291.5h24.75v3.93h-20.1V306h18.63v4.09H662.63Zm42.83-10.61H694.3v14.7h-4.65V291.5h15.81q11.35,0,11.36,9.14h0a8.68,8.68,0,0,1-4.84,8.18h0c2.72.74,4.09,2.92,4.09,6.52h0l.39,6.16c-.13,1.72.43,2.83,1.67,3.33h0v.76h-5.8a49.89,49.89,0,0,1-.71-8.58h0q.15-6.12-6.16-6.12Zm.36-15.66H694.3V307h10.8Q712,307,712,301h0c0-3.85-2.06-5.77-6.16-5.77Zm40,30.36-3.34-9.85H728.74l-3.53,9.85h-4.65l12.83-34.09h5.2l12.32,34.09Zm-10.25-29-5.41,15.05h10.65l-5.05-15.05Zm28.12-1.12H752.22V291.5h27.54v3.93H768.23v30.16h-4.49Zm47.13,13.19h0q-.76-13.38-11.92-14.14h0Q787.58,295,787,308.62h0q.56,13.23,11.92,13.79h0Q810.11,321.69,810.87,308.62Zm4.64,0h0q-1.11,17-16.56,17.52h0q-15.66-.56-16.77-17.52h0q1-17.67,16.77-18h0Q814.4,291.15,815.51,308.62Zm21.82,2.27H826.16v14.7h-4.69V291.5h15.86q11.35,0,11.36,9.14h0a8.69,8.69,0,0,1-4.85,8.18h0c2.73.74,4.09,2.92,4.09,6.52h0l.36,6.16q-.15,2.58,1.71,3.33h0v.76h-5.8a52.79,52.79,0,0,1-.76-8.58h0q.21-6.12-6.11-6.12Zm.35-15.66H826.16V307h10.77q6.92,0,6.91-5.95h0q0-5.78-6.16-5.77Z"/></g></g></svg>