<svg id="HIVE" xmlns="http://www.w3.org/2000/svg" viewBox="0 0 1000 1000"><defs><style>.cls-1{fill:#478ecd;}.cls-1,.cls-2,.cls-3,.cls-4,.cls-5{fill-rule:evenodd;}.cls-2{fill:#2b6ab4;}.cls-3{fill:#084672;}.cls-4{fill:#8dbce6;}.cls-5{fill:#004287;}</style></defs><g id="LOGO"><path class="cls-1" d="M500,435.55V298l87.5-50.41,31.69-18.41v53.59l-8.39,4.91-64.29,37.1v84Zm28.35,80.83L500,500v-30.6c15.18,2.41,29.17,4.42,31.21,4.09s8.55-3.72,15.2-8.18v7.85l21.23,12.28s-25.42,19.12-39.29,30.92Zm156.08-314,78.1,45L850,297.87V499.92l-87.5,50.52L675,600.94l-87.48-50.5L555.83,532l46.39-26.79,8.49,4.91L675,547.27l64.29-37.12L803.57,473V324.73l-64.33-37.1L684.4,255.92Z"/><path class="cls-2" d="M444.17,532.22l-31.7,18.4L325,601.12l-87.48-50.5-31.68-18.4,46.39-26.8,8.49,4.91L325,547.45l64.29-37.12,8.49-4.91Zm55.8-62.8v19.72L453.56,462.3v-6.95c3.95,3.7,6.42,6.54,4.76,6.54C455.56,462,478.94,466.09,500,469.42ZM325,196.91l87.49,50.63L500,298.06V435.65l-46.41-26.77V324.73l-64.29-37.1L325,250.5,260.7,287.63l-64.31,37.1V462.3L150,489.08V298l87.5-50.41Z"/><path class="cls-3" d="M555.79,585.8l8.47,4.91,64.28,37.11v84L675,738.62V601l-87.48-50.5-31.68-18.41ZM509.38,559l15.85,9.14s-6.91-38.86-5.67-43.18c.31-1.14,3.79-4.39,8.76-8.61l-18.94-11ZM500,904.11l87.5-50.5,78.08-45-46.39-26.88-54.9,31.69L500,850.54l-64.29-37.12-64.22-37.13V627.82l64.3-37.11,8.49-4.91V532.22l-31.7,18.4-87.48,50.5V803.19l87.48,50.52Z"/><path class="cls-4" d="M500,95.89l87.5,50.52L675,196.91V399l-87.48,50.5L500,500l-87.5-50.54L325,399V261.36l46.39,26.8v84l64.29,37.11L500,446.43l64.29-37.12,64.28-37.11V223.71L564.26,186.6,500,149.48,435.66,186.6,380.8,218.29l-46.43-26.8,78.1-45.08Z"/><path class="cls-2" d="M675,803.09l87.51-50.5,87.48-50.52V510.88l-46.41,26.78V675.27L739.24,712.4,675,749.52,610.67,712.4l-64.31-37.13V526.79l64.31-37.1L675,452.57l64.29,37.12,8.47,4.89,46.41-26.8-31.66-18.3L675,399l-87.48,50.5L500,500V702.07l87.5,50.52Z"/><path class="cls-5" d="M380.8,770.85l31.67-18.26L500,702.07V500l-87.5-50.54L325,399l-87.5,50.5L150,500V702.07l87.48,50.52,78.1,45.08V744.08L260.7,712.4l-64.31-37.13V526.79l64.31-37.1L325,452.57l64.29,37.12,64.29,37.1V675.27L389.27,712.4l-8.47,4.88v53.57Z"/></g></svg>