<svg id="HIVE" xmlns="http://www.w3.org/2000/svg" viewBox="0 0 1000 1000"><defs><style>.cls-1{fill:#478ecd;}.cls-1,.cls-2,.cls-3,.cls-4,.cls-5{fill-rule:evenodd;}.cls-2{fill:#2b6ab4;}.cls-3{fill:#084672;}.cls-4{fill:#8dbce6;}.cls-5{fill:#004287;}.cls-6{fill:#333;}</style></defs><g id="TITLE"><path class="cls-1" d="M205.12,476V424.88l32.53-18.75,11.78-6.84v19.92L246.31,421l-23.9,13.8v31.24Zm10.54,30L205.12,500V488.63c5.64.9,10.84,1.64,11.6,1.52a23.54,23.54,0,0,0,5.65-3V490l7.9,4.56s-9.46,7.11-14.61,11.5Zm58-116.75,29,16.73,32.54,18.78V500l-32.54,18.78-32.53,18.78-32.52-18.78-11.78-6.84,17.24-10,3.16,1.82,23.9,13.8,23.9-13.8L318,490V434.84L294.08,421l-20.39-11.79Z"/><path class="cls-2" d="M184.37,512l-11.79,6.84L140.06,537.6l-32.53-18.78L95.75,512,113,502l3.16,1.82,23.9,13.8,23.9-13.8,3.16-1.82Zm20.75-23.35V496l-17.26-10V483.4c1.47,1.38,2.39,2.43,1.77,2.43C188.61,485.86,197.3,487.39,205.12,488.63ZM140.06,387.31l32.52,18.82,32.54,18.79v51.16l-17.26-10V434.84L164,421l-23.9-13.8L116.16,421l-23.91,13.8V486L75,495.94V424.88l32.53-18.75Z"/><path class="cls-3" d="M225.87,531.9l3.15,1.83,23.9,13.79v31.24l17.26,10V537.56l-32.53-18.78-11.78-6.84ZM208.62,522l5.89,3.4s-2.57-14.45-2.11-16.06c.12-.42,1.41-1.63,3.26-3.2l-7-4.07Zm-3.5,128.3,32.53-18.78,29-16.73-17.25-10L229,616.53l-23.9,13.8-23.9-13.8-23.88-13.81v-55.2l23.91-13.79,3.15-1.83V512l-11.79,6.84L140.09,537.6v75.12l32.52,18.79Z"/><path class="cls-4" d="M205.12,349.75l32.53,18.79,32.53,18.77v75.13l-32.53,18.78L205.12,500l-32.54-18.79-32.52-18.78V411.28l17.25,10v31.25l23.9,13.79,23.91,13.8,23.9-13.8,23.9-13.79V397.28L229,383.48l-23.9-13.8-23.91,13.8-20.4,11.78-17.26-10,29-16.76Z"/><path class="cls-2" d="M270.18,612.69l32.53-18.78,32.52-18.78V504.05L318,514v51.16L294.08,579l-23.9,13.8L246.27,579l-23.91-13.81V510l23.91-13.79,23.91-13.81,23.9,13.81,3.15,1.81,17.25-10-11.77-6.8-32.53-18.78-32.53,18.78L205.12,500v75.12l32.53,18.78Z"/><path class="cls-5" d="M160.81,600.7l11.77-6.79,32.54-18.78V500l-32.54-18.79-32.52-18.78-32.53,18.78L75,500v75.12l32.53,18.78,29,16.76V590.75L116.16,579,92.25,565.16V510l23.91-13.79,23.9-13.81L164,496.17,187.86,510v55.2L164,579l-3.15,1.82V600.7Z"/><path class="cls-6" d="M504.64,362.47h12.1V580.18h-12.1V471.87H378V580.18H365.62V362.47H378v97.3H504.64Zm59.47,0h12.71V580.18H564.11Zm203.87,0h12.66l-81.2,217.71H688.73l-80.9-217.71h14.06L694.37,563Zm157,12.15H821.55v84.89h97v12.1h-97V568H925v12.15H809.14V362.47H925Z"/><rect class="cls-6" x="387.31" y="624.03" width="82.81" height="4.34"/><rect class="cls-6" x="820.5" y="624.03" width="82.81" height="4.34"/><path class="cls-6" d="M487.39,623.38h16.4V610.56h4.26v31.26h-4.26v-14.5h-16.4v14.5h-4.26V610.56h4.26Zm52.44-12.82-11.77,18.62v12.64h-4.27V629.18L512,610.56h5l8.89,15.05,9-15.05ZM556.91,614h-8.52v10.93h8.34q6.53,0,6.52-5.64h0c0-3.4-2.11-5.17-6.34-5.29Zm1.39,14.69h-9.91v13.15h-4.26V610.56H558.3q8.85.36,9.22,8.71h0q-.51,9.06-9.22,9.4Zm19.13,9.4h18.76v3.75H573.13V610.56h22.73v3.6H577.43v9.73h17.05v3.76H577.43Zm39.28-9.73H606.43v13.48h-4.26V610.56h14.54q10.41,0,10.42,8.38h0a8,8,0,0,1-4.45,7.5h0c2.5.68,3.75,2.68,3.75,6h0l.33,5.65q-.15,2.37,1.53,3.06h0v.69H623a47.55,47.55,0,0,1-.69-7.87h0q.18-5.61-5.61-5.61ZM617,614h-10.6v10.75h9.91q6.35,0,6.34-5.46h0q0-5.29-5.65-5.29Zm23.58,25.62,8.89-8.89L640.61,622l2.22-2.37,8.89,8.85,8.71-8.85L662.8,622l-8.86,8.71,8.86,8.89-2.37,2.22-8.71-8.71-8.89,8.71Zm36.87-29h4.3v31.26h-4.3Zm16.58,0,15.7,25.28V610.56h4.12v31.26h-4.77l-15.89-25.29H693v25.29H689V610.56Zm31.44,0,15.71,25.28V610.56h4.08v31.26h-4.77l-15.89-25.29h-.15v25.29h-4.11V610.56Zm31.08,27.51h18.77v3.75h-23V610.56H775v3.6H756.58v9.73h17.09v3.76H756.58Zm39.28-9.73H785.62v13.48h-4.3V610.56h14.54q10.42,0,10.42,8.38h0a8,8,0,0,1-4.44,7.5h0c2.5.68,3.75,2.68,3.75,6h0l.33,5.65q-.15,2.37,1.56,3.06h0v.69h-5.32a46.56,46.56,0,0,1-.65-7.87h0c.1-3.74-1.79-5.61-5.65-5.61Zm.33-14.36H785.62v10.75h9.91q6.32,0,6.31-5.46h0c0-3.53-1.89-5.29-5.65-5.29Z"/></g></svg>