<svg id="WEKI" xmlns="http://www.w3.org/2000/svg" viewBox="0 0 1000 1000"><defs><style>.cls-1{fill:#0f0f0f;}</style></defs><path id="LOGO" class="cls-1" d="M251.81,445.85H139.48l7.74,21.65,94.33,264.3Zm319.1,249.5L302.28,796.08,615.09,850ZM841.7,593.8,595.6,686.07l43.66,152.8ZM642.61,317.85,595.75,657.92l264.77-99.28Zm-81.5,353.06L277.64,458.32,266.09,781.54Zm92.33-380.28L847.22,504.77l-89.29-241L745.2,229.44ZM292.12,436.36,570.91,645.45l46.44-336.88ZM603.8,285.68,377.7,150,287.23,410Zm29.28-13.09,85.26-56.81L443.68,159Zm-377,147,78.1-224.45L148.71,419.61Z"/></svg>