<svg id="WEKI" xmlns="http://www.w3.org/2000/svg" viewBox="0 0 1000 1000"><defs><style>.cls-1{fill:#0f0f0f;}</style></defs><g id="TITLE"><path class="cls-1" d="M137.78,481.79H100l2.6,7.28L134.33,578Zm107.33,83.92-90.35,33.88L260,617.73Zm91.09-34.16-82.78,31L268.11,614Zm-67-92.82L253.47,553.12l89.06-33.4ZM241.82,557.49,146.47,486,142.59,594.7Zm31.05-127.91,65.18,72-30-81.06L303.74,409Zm-121.53,49,93.77,70.33,15.63-113.31Zm104.84-50.68-76.05-45.64-30.44,87.46Zm9.84-4.4L294.7,404.4l-92.38-19.11ZM139.2,473l26.27-75.5L103.1,473Z"/><path class="cls-1" d="M423,585.26h0a23.54,23.54,0,0,0,5.78.42c3,0,4.83-.17,5.39-.5s1.23-1.85,2.05-4.47h0q.22-.81,2.3-7.86t6.52-21.61q4.43-14.6,7.74-25.35h0q16.14-53.38,18-55.66h0a1.82,1.82,0,0,1,1.66-.65h0q1.44.23,4.13,8.2t16.76,51.82h0q17.17,54.64,18.21,55.66h0a23.64,23.64,0,0,0,5.79.42h0q4.77,0,5.58-.42h0q.84-.62,19.68-70.15h0l19.45-71.57a7,7,0,0,1,3.2-4.47c1.44-.75,4.58-1.47,9.4-2.16h0q6.43-.84,7.36-1.35t.93-3.42h0q-.21-2.47-3.51-3t-22-.73h0q-24.4,0-25.86,1h0c-.28.28-.42,1.26-.42,2.92h0c0,1.65.28,2.64.84,3s2.75.8,6.63,1.35h0a3.08,3.08,0,0,0,1,.22h0q8.28,1.23,8.7,1.43h0q3.32,1.67,1,11.82h0q-.84,4.93-11,42.61h0q-13.25,48.84-14.9,51.31h0a1.48,1.48,0,0,1-2.05.42h0q-1.46-.81-16.87-50.69t-15-52.16h0a4.4,4.4,0,0,1,2.81-3.08c1.44-.56,4.51-1.12,9.21-1.66h0q8.89-1,9.51-1.88h0a10.82,10.82,0,0,0,.2-2.89h0q0-2.47-15.81-3.51a241,241,0,0,0-31.57,0q-15.72,1-15.72,3.51h0c0,1.93.27,3,.81,3.31s3.32.77,8.28,1.46h0c6.78.82,10.43,2,11,3.62s-.61,7-3.51,16.23h0q-25.26,82.58-27.54,86.51h0c-.54,1.1-1.3,1.45-2.27,1h0q-1.44-.62-3.4-7.47t-12.94-48.42h0q-1.23-4.74-3.54-13.22h0q-7.86-29.38-7.24-33.74h0q.23-3.51,4.35-4.16h0c.56,0,1.53-.06,2.89-.19h0c1.39-.13,2.49-.27,3.32-.42h0q6.42-.82,7.35-1.35c.62-.34.93-1.4.93-3.2h0c0-1.52-.27-2.42-.82-2.7h0q-2.26-1-31.86-1h0q-23.4.22-27.53.73c-2.75.35-4.21,1.35-4.35,3h0q0,2.89.72,3.42t5.48.93h0a29,29,0,0,0,3.73.2h0q3.51,0,4.86.84t3.73,5.78a110.21,110.21,0,0,1,5.39,14.91q3,9.93,8.59,29.58h0q4.54,16.14,7.44,26.08h0Q422.81,585.07,423,585.26Zm220,1.88h0a54,54,0,0,0,28-3.93,45.79,45.79,0,0,0,20.38-17.37h0a16.51,16.51,0,0,0,2.27-4.47c.15-.76-.26-1.42-1.23-2h0c-1-.69-1.73-.9-2.27-.62a23,23,0,0,0-3.74,3.31h0q-13,13.26-31.35,12T627.27,558h0a53.08,53.08,0,0,1-5.89-14.68c-1.6-6.06-1.9-10.13-.93-12.21h0a1.57,1.57,0,0,1,.2-.62h0q.61-1.85,4.74-2.19t26.69-.5h6.24q31.23-.21,33.71-.82h0q2.49-.64,2.69-3.73h0v-2.89h0q2.7-31.47-20.18-44.49T626,475.51q-25.68,12.71-29.81,44.18h0q-3.72,27.09,9.41,45.92T643,587.14Zm24.42-68.71h0q-2.07,1-22.34,1.34T622.72,519h0q-4.58-2.26-.73-15.1t11.06-19.45h0q11.79-10.33,25-4.44t15.1,22.24h0Q674.45,514.92,667.41,518.43Zm44.69,62.71a3.89,3.89,0,0,0,.64,2.69q.63.61,28.13.73t28.35-.53h0a7.64,7.64,0,0,0,.42-3.32c0-1.79-.14-2.76-.42-2.89s-2.28-.47-6-1h0q-7.63-1-9-2.89t-1.77-12.4h0q-.42-16.77.42-20.8c.55-2.7,2.47-5.64,5.79-8.82h0q4.77-4.74,6-5.16h0q2.7-.42,7.86,7.86h0q1.86,3.1,13,22.37h0l7.58,13q3.81,6.63,5.89,10a31.09,31.09,0,0,1,2.05,3.62h0q.42.63,17.18.82t17.4-.42h0c.27-.27.43-1.29.51-3.09s0-2.84-.31-3.12h0c-.13,0-1.85-.27-5.17-.81h0a11.62,11.62,0,0,1-1.88-.23h0a12.05,12.05,0,0,1-8-3.81q-2.77-3.21-14.17-22.88h0q-3.09-5.16-4.75-8.06h0c-1.51-2.49-3.52-5.8-6-9.93h0Q785.17,513.68,784.55,510h0q-.42-3.31,3.7-7.44h0a7.28,7.28,0,0,0,1.27-1h0c1.36-1.25,2.39-2.22,3.08-2.89h0q12.84-12.63,15.72-14.4t12.21-3h0q7.86-1,8.82-1.35c.61-.21.92-1.2.92-3s-.28-2.83-.84-3.11h0q-1.84-.84-25.85-.84h0q-25,0-26.7,1h0c-.28.28-.42,1.17-.42,2.69h0q0,2.28.93,3c.62.49,2.52,1,5.7,1.55h0q8.48,1.65,8.9,3.31h0q.62,2.28-9.72,12.83h0l-7.46,7.46h0q-17,17-19.23,17.8h0c-1,.41-1.81-.07-2.5-1.46h0q-.62-.81-.73-34.36t.31-53h0q.62-19.44-.62-20.88h0a3.83,3.83,0,0,0-2.08-.42h0q-.81,0-18.91,4.24t-18.53,4.66h0a6.9,6.9,0,0,0-.42,2.89h0c0,1.51.32,2.45.95,2.81s2.79.71,6.51,1.12h0q8.3.84,9.94,3.51h0q.39,1.26.62,68.21t-.42,70.65h0a5.48,5.48,0,0,1-2.58,4.35c-1.46.83-4.47,1.52-9,2.08h0q-5.18.62-5.37,1.43h0A3.9,3.9,0,0,0,712.1,581.14Zm132.85,0a4,4,0,0,0,.62,2.69q.61.61,26.92.73t27.09-.53h0c.28-.27.42-1.29.42-3.09s-.14-2.84-.42-3.12H899a16.42,16.42,0,0,0-1.85-.42c-.82-.13-1.58-.26-2.27-.39h0c-4-.56-6.42-1.32-7.25-2.27h0q-2.88-3.12-3.11-25.27h0q-.19-8.47,0-38.68h0q.22-28.57.11-33.54c-.08-3.31-.38-5.24-.93-5.78h0a4.12,4.12,0,0,0-3.42-.62q-2,.39-17.49,5.36h0q-14.49,4.57-17,5.7a3.66,3.66,0,0,0-2.5,3.42c0,1.52.31,2.44.92,2.78s2.75.74,6.32,1.15h0a24.45,24.45,0,0,1,2.7.2h0q6.42.23,7.46,4.46t1,29.05h0v10.17h0v11.78h0q0,25.25-1.43,28.55h0q-1,2.7-6,3.12h-.61a28.92,28.92,0,0,0-2.9.42h0q-4.77.62-5.19,1.23h0A5,5,0,0,0,845,581.14ZM869.8,443.73h0q8.28,1.45,13.64-3.93a14.57,14.57,0,0,0,4.46-12.71q-.93-7.36-8.59-10.87h0a14.92,14.92,0,0,0-6.73-1.15,19.34,19.34,0,0,0-6.94,1.35h0a13.62,13.62,0,0,0-7.86,9.09,14.05,14.05,0,0,0,1.77,11.6A14.61,14.61,0,0,0,869.8,443.73Z"/></g></svg>