<svg id="HIVE" xmlns="http://www.w3.org/2000/svg" viewBox="0 0 1000 1000"><defs><style>.cls-1{fill:#333;}</style></defs><path class="cls-1" d="M499.63,676.56c-96.81,0-176.56-79-176.56-176.56s79.75-175.77,176.56-175.77,176.56,79,176.56,176.56S597.18,676.56,499.63,676.56Zm0-259.42A82.86,82.86,0,1,0,582.49,500a82.93,82.93,0,0,0-82.86-82.86Z"/><circle class="cls-1" cx="695.53" cy="702.08" r="51.89"/><path class="cls-1" d="M499.63,850C306.8,850,150.37,692.78,150.37,500S306.85,150,499.63,150s350,157.22,350,350c0,54.21-12.37,106.06-35.62,154.89l-83.66-41.07c17.81-35.62,26.31-73.56,26.31-113,0-141.73-115.36-257.09-257.09-257.09S243.33,359.06,243.33,500,358.69,757.1,499.63,757.1a252.79,252.79,0,0,0,109.18-24.79l40.27,84.4A351.42,351.42,0,0,1,499.63,850Z"/></svg>