<svg id="HIVE" xmlns="http://www.w3.org/2000/svg" viewBox="0 0 1000 1000"><defs><style>.cls-1{fill:#333;}</style></defs><path class="cls-1" d="M239.07,641H125V359H240.6q114,6.18,118.68,137.17h0Q353.1,638,239.07,641Zm-4.65-251.2H163.53V608.68h74q80.13-4.65,83.2-109.43h0q-1.53-106.35-86.32-109.42Z"/><path class="cls-1" d="M504.21,566.93a65.54,65.54,0,0,1-65.38-65.38c0-36.12,29.53-65.08,65.38-65.08a65.23,65.23,0,1,1,0,130.46Zm0-96.06a30.68,30.68,0,1,0,30.68,30.68,30.7,30.7,0,0,0-30.68-30.68Z"/><circle class="cls-1" cx="576.75" cy="576.38" r="19.22"/><path class="cls-1" d="M504.21,631.15c-71.41,0-129.33-58.22-129.33-129.6S432.82,372,504.21,372s129.6,58.22,129.6,129.6a132.29,132.29,0,0,1-13.19,57.36l-31-15.21a92.45,92.45,0,0,0,9.74-41.86,95,95,0,1,0-190.08-.29c0,52.2,42.72,95.2,94.91,95.2a93.67,93.67,0,0,0,40.43-9.18l14.91,31.25a130,130,0,0,1-55.34,12.33Z"/><path class="cls-1" d="M817.53,434.5l-78.61,77.07L822.13,641H777.41l-64.7-104.82L685,564V641H651.07V359H685V522.36l89.39-87.86Z"/><path class="cls-1" d="M839.58,434.5H875V641H839.58ZM875,359V397.5H839.58V359Z"/></svg>